<?xml version="1.0" standalone="no"?>
<!DOCTYPE svg PUBLIC "-//W3C//DTD SVG 1.1//EN" "http://www.w3.org/Graphics/SVG/1.1/DTD/svg11.dtd">

<svg width="500" height="600" version="1.1" xmlns="http://www.w3.org/2000/svg">
	<ellipse stroke="black" stroke-width="1" fill="none" cx="308.5" cy="34.5" rx="30" ry="30"/>
	<ellipse stroke="black" stroke-width="1" fill="none" cx="168.5" cy="120.5" rx="30" ry="30"/>
	<text x="163.5" y="126.5" font-family="Times New Roman" font-size="20">p</text>
	<ellipse stroke="black" stroke-width="1" fill="none" cx="308.5" cy="120.5" rx="30" ry="30"/>
	<text x="305.5" y="126.5" font-family="Times New Roman" font-size="20">r</text>
	<ellipse stroke="black" stroke-width="1" fill="none" cx="432.5" cy="120.5" rx="30" ry="30"/>
	<text x="424.5" y="126.5" font-family="Times New Roman" font-size="20">m</text>
	<ellipse stroke="black" stroke-width="1" fill="none" cx="95.5" cy="226.5" rx="30" ry="30"/>
	<text x="92.5" y="232.5" font-family="Times New Roman" font-size="20">r</text>
	<ellipse stroke="black" stroke-width="1" fill="none" cx="168.5" cy="226.5" rx="30" ry="30"/>
	<text x="165.5" y="232.5" font-family="Times New Roman" font-size="20">l</text>
	<ellipse stroke="black" stroke-width="1" fill="none" cx="239.5" cy="226.5" rx="30" ry="30"/>
	<text x="235.5" y="232.5" font-family="Times New Roman" font-size="20">a</text>
	<ellipse stroke="black" stroke-width="1" fill="none" cx="95.5" cy="311.5" rx="30" ry="30"/>
	<text x="92.5" y="317.5" font-family="Times New Roman" font-size="20">i</text>
	<ellipse stroke="black" stroke-width="1" fill="none" cx="32.5" cy="394.5" rx="30" ry="30"/>
	<text x="28.5" y="400.5" font-family="Times New Roman" font-size="20">z</text>
	<ellipse stroke="black" stroke-width="1" fill="none" cx="32.5" cy="478.5" rx="30" ry="30"/>
	<text x="28.5" y="484.5" font-family="Times New Roman" font-size="20">e</text>
	<ellipse stroke="black" stroke-width="1" fill="none" cx="32.5" cy="478.5" rx="24" ry="24"/>
	<ellipse stroke="black" stroke-width="1" fill="none" cx="95.5" cy="394.5" rx="30" ry="30"/>
	<text x="91.5" y="400.5" font-family="Times New Roman" font-size="20">c</text>
	<ellipse stroke="black" stroke-width="1" fill="none" cx="95.5" cy="478.5" rx="30" ry="30"/>
	<text x="91.5" y="484.5" font-family="Times New Roman" font-size="20">e</text>
	<ellipse stroke="black" stroke-width="1" fill="none" cx="95.5" cy="478.5" rx="24" ry="24"/>
	<ellipse stroke="black" stroke-width="1" fill="none" cx="158.5" cy="394.5" rx="30" ry="30"/>
	<text x="153.5" y="400.5" font-family="Times New Roman" font-size="20">n</text>
	<ellipse stroke="black" stroke-width="1" fill="none" cx="158.5" cy="478.5" rx="30" ry="30"/>
	<text x="155.5" y="484.5" font-family="Times New Roman" font-size="20">t</text>
	<ellipse stroke="black" stroke-width="1" fill="none" cx="158.5" cy="478.5" rx="24" ry="24"/>
	<ellipse stroke="black" stroke-width="1" fill="none" cx="168.5" cy="311.5" rx="30" ry="30"/>
	<text x="163.5" y="317.5" font-family="Times New Roman" font-size="20">y</text>
	<ellipse stroke="black" stroke-width="1" fill="none" cx="168.5" cy="311.5" rx="24" ry="24"/>
	<ellipse stroke="black" stroke-width="1" fill="none" cx="239.5" cy="311.5" rx="30" ry="30"/>
	<text x="235.5" y="317.5" font-family="Times New Roman" font-size="20">s</text>
	<ellipse stroke="black" stroke-width="1" fill="none" cx="239.5" cy="394.5" rx="30" ry="30"/>
	<text x="236.5" y="400.5" font-family="Times New Roman" font-size="20">t</text>
	<ellipse stroke="black" stroke-width="1" fill="none" cx="239.5" cy="394.5" rx="24" ry="24"/>
	<ellipse stroke="black" stroke-width="1" fill="none" cx="308.5" cy="226.5" rx="30" ry="30"/>
	<text x="304.5" y="232.5" font-family="Times New Roman" font-size="20">a</text>
	<ellipse stroke="black" stroke-width="1" fill="none" cx="308.5" cy="311.5" rx="30" ry="30"/>
	<text x="303.5" y="317.5" font-family="Times New Roman" font-size="20">n</text>
	<ellipse stroke="black" stroke-width="1" fill="none" cx="308.5" cy="311.5" rx="24" ry="24"/>
	<ellipse stroke="black" stroke-width="1" fill="none" cx="392.5" cy="226.5" rx="30" ry="30"/>
	<text x="388.5" y="232.5" font-family="Times New Roman" font-size="20">e</text>
	<ellipse stroke="black" stroke-width="1" fill="none" cx="392.5" cy="226.5" rx="24" ry="24"/>
	<ellipse stroke="black" stroke-width="1" fill="none" cx="471.5" cy="226.5" rx="30" ry="30"/>
	<text x="466.5" y="232.5" font-family="Times New Roman" font-size="20">y</text>
	<ellipse stroke="black" stroke-width="1" fill="none" cx="471.5" cy="226.5" rx="24" ry="24"/>
	<ellipse stroke="black" stroke-width="1" fill="none" cx="308.5" cy="394.5" rx="30" ry="30"/>
	<text x="305.5" y="400.5" font-family="Times New Roman" font-size="20">t</text>
	<polygon stroke="black" stroke-width="1" points="282.938,50.203 194.062,104.797"/>
	<polygon fill="black" stroke-width="1" points="194.062,104.797 203.496,104.87 198.262,96.35"/>
	<polygon stroke="black" stroke-width="1" points="151.484,145.208 112.516,201.792"/>
	<polygon fill="black" stroke-width="1" points="112.516,201.792 121.171,198.04 112.935,192.368"/>
	<polygon stroke="black" stroke-width="1" points="95.5,256.5 95.5,281.5"/>
	<polygon fill="black" stroke-width="1" points="95.5,281.5 100.5,273.5 90.5,273.5"/>
	<polygon stroke="black" stroke-width="1" points="77.362,335.396 50.638,370.604"/>
	<polygon fill="black" stroke-width="1" points="50.638,370.604 59.457,367.255 51.492,361.209"/>
	<polygon stroke="black" stroke-width="1" points="32.5,424.5 32.5,448.5"/>
	<polygon fill="black" stroke-width="1" points="32.5,448.5 37.5,440.5 27.5,440.5"/>
	<polygon stroke="black" stroke-width="1" points="95.5,341.5 95.5,364.5"/>
	<polygon fill="black" stroke-width="1" points="95.5,364.5 100.5,356.5 90.5,356.5"/>
	<polygon stroke="black" stroke-width="1" points="95.5,424.5 95.5,448.5"/>
	<polygon fill="black" stroke-width="1" points="95.5,448.5 100.5,440.5 90.5,440.5"/>
	<polygon stroke="black" stroke-width="1" points="113.638,335.396 140.362,370.604"/>
	<polygon fill="black" stroke-width="1" points="140.362,370.604 139.508,361.209 131.543,367.255"/>
	<polygon stroke="black" stroke-width="1" points="158.5,424.5 158.5,448.5"/>
	<polygon fill="black" stroke-width="1" points="158.5,448.5 163.5,440.5 153.5,440.5"/>
	<polygon stroke="black" stroke-width="1" points="168.5,150.5 168.5,196.5"/>
	<polygon fill="black" stroke-width="1" points="168.5,196.5 173.5,188.5 163.5,188.5"/>
	<polygon stroke="black" stroke-width="1" points="168.5,256.5 168.5,281.5"/>
	<polygon fill="black" stroke-width="1" points="168.5,281.5 173.5,273.5 163.5,273.5"/>
	<polygon stroke="black" stroke-width="1" points="185.195,145.425 222.805,201.575"/>
	<polygon fill="black" stroke-width="1" points="222.805,201.575 222.507,192.145 214.198,197.711"/>
	<polygon stroke="black" stroke-width="1" points="239.5,256.5 239.5,281.5"/>
	<polygon fill="black" stroke-width="1" points="239.5,281.5 244.5,273.5 234.5,273.5"/>
	<polygon stroke="black" stroke-width="1" points="239.5,341.5 239.5,364.5"/>
	<polygon fill="black" stroke-width="1" points="239.5,364.5 244.5,356.5 234.5,356.5"/>
	<polygon stroke="black" stroke-width="1" points="308.5,64.5 308.5,90.5"/>
	<polygon fill="black" stroke-width="1" points="308.5,90.5 313.5,82.5 303.5,82.5"/>
	<polygon stroke="black" stroke-width="1" points="308.5,150.5 308.5,196.5"/>
	<polygon fill="black" stroke-width="1" points="308.5,196.5 313.5,188.5 303.5,188.5"/>
	<polygon stroke="black" stroke-width="1" points="308.5,256.5 308.5,281.5"/>
	<polygon fill="black" stroke-width="1" points="308.5,281.5 313.5,273.5 303.5,273.5"/>
	<polygon stroke="black" stroke-width="1" points="333.151,51.597 407.849,103.403"/>
	<polygon fill="black" stroke-width="1" points="407.849,103.403 404.124,94.735 398.425,102.952"/>
	<polygon stroke="black" stroke-width="1" points="421.908,148.568 403.092,198.432"/>
	<polygon fill="black" stroke-width="1" points="403.092,198.432 410.594,192.712 401.238,189.182"/>
	<polygon stroke="black" stroke-width="1" points="442.859,148.655 461.141,198.345"/>
	<polygon fill="black" stroke-width="1" points="461.141,198.345 463.071,189.111 453.686,192.564"/>
	<polygon stroke="black" stroke-width="1" points="308.5,341.5 308.5,364.5"/>
	<polygon fill="black" stroke-width="1" points="308.5,364.5 313.5,356.5 303.5,356.5"/>
</svg>
