<?xml version="1.0" encoding="UTF-8" standalone="no"?>
<svg
   xmlns:dc="http://purl.org/dc/elements/1.1/"
   xmlns:cc="http://creativecommons.org/ns#"
   xmlns:rdf="http://www.w3.org/1999/02/22-rdf-syntax-ns#"
   xmlns:svg="http://www.w3.org/2000/svg"
   xmlns="http://www.w3.org/2000/svg"
   xmlns:sodipodi="http://sodipodi.sourceforge.net/DTD/sodipodi-0.dtd"
   xmlns:inkscape="http://www.inkscape.org/namespaces/inkscape"
   inkscape:version="1.0 (4035a4f, 2020-05-01)"
   sodipodi:docname="315_4.6_binDelLC02.svg"
   id="svg1091"
   version="1.1"
   height="410"
   width="500">
  <metadata
     id="metadata1097">
    <rdf:RDF>
      <cc:Work
         rdf:about="">
        <dc:format>image/svg+xml</dc:format>
        <dc:type
           rdf:resource="http://purl.org/dc/dcmitype/StillImage" />
        <dc:title></dc:title>
      </cc:Work>
    </rdf:RDF>
  </metadata>
  <defs
     id="defs1095" />
  <sodipodi:namedview
     inkscape:current-layer="svg1091"
     inkscape:window-maximized="0"
     inkscape:window-y="23"
     inkscape:window-x="0"
     inkscape:cy="205"
     inkscape:cx="250"
     inkscape:zoom="1.236"
     showgrid="false"
     id="namedview1093"
     inkscape:window-height="1005"
     inkscape:window-width="1680"
     inkscape:pageshadow="2"
     inkscape:pageopacity="0"
     guidetolerance="10"
     gridtolerance="10"
     objecttolerance="10"
     borderopacity="1"
     bordercolor="#666666"
     pagecolor="#ffffff" />
  <ellipse
     id="ellipse975"
     ry="30"
     rx="30"
     cy="40.5"
     cx="238.5"
     fill="none"
     stroke-width="1"
     stroke="black" />
  <text
     id="text977"
     font-size="20"
     font-family="Times New Roman"
     y="46.5"
     x="228.5">80</text>
  <ellipse
     id="ellipse979"
     ry="30"
     rx="30"
     cy="111.5"
     cx="129.5"
     fill="none"
     stroke-width="1"
     stroke="black" />
  <text
     id="text981"
     font-size="20"
     font-family="Times New Roman"
     y="117.5"
     x="119.5">40</text>
  <ellipse
     id="ellipse983"
     ry="30"
     rx="30"
     cy="111.5"
     cx="353.5"
     fill="none"
     stroke-width="1"
     stroke="black" />
  <text
     id="text985"
     font-size="20"
     font-family="Times New Roman"
     y="117.5"
     x="338.5">130</text>
  <ellipse
     id="ellipse987"
     ry="30"
     rx="30"
     cy="201.5"
     cx="65.5"
     fill="none"
     stroke-width="1"
     stroke="black" />
  <text
     id="text989"
     font-size="20"
     font-family="Times New Roman"
     y="207.5"
     x="55.5">20</text>
  <ellipse
     id="ellipse991"
     ry="30"
     rx="30"
     cy="201.5"
     cx="181.5"
     fill="none"
     stroke-width="1"
     stroke="black" />
  <text
     id="text993"
     font-size="20"
     font-family="Times New Roman"
     y="207.5"
     x="171.5">60</text>
  <ellipse
     id="ellipse995"
     ry="30"
     rx="30"
     cy="201.5"
     cx="321.5"
     fill="none"
     stroke-width="1"
     stroke="black" />
  <text
     id="text997"
     font-size="20"
     font-family="Times New Roman"
     y="207.5"
     x="306.5">120</text>
  <ellipse
     id="ellipse999"
     ry="30"
     rx="30"
     cy="201.5"
     cx="411.5"
     fill="none"
     stroke-width="1"
     stroke="black" />
  <text
     id="text1001"
     font-size="20"
     font-family="Times New Roman"
     y="207.5"
     x="396.5">140</text>
  <ellipse
     id="ellipse1003"
     ry="30"
     rx="30"
     cy="297.5"
     cx="30.5"
     fill="none"
     stroke-width="1"
     stroke="black" />
  <text
     id="text1005"
     font-size="20"
     font-family="Times New Roman"
     y="303.5"
     x="20.5">10</text>
  <ellipse
     id="ellipse1007"
     ry="30"
     rx="30"
     cy="297.5"
     cx="90.5"
     fill="none"
     stroke-width="1"
     stroke="black" />
  <text
     id="text1009"
     font-size="20"
     font-family="Times New Roman"
     y="303.5"
     x="80.5">30</text>
  <ellipse
     id="ellipse1011"
     ry="30"
     rx="30"
     cy="294.5"
     cx="212.5"
     fill="none"
     stroke-width="1"
     stroke="black" />
  <text
     id="text1013"
     font-size="20"
     font-family="Times New Roman"
     y="300.5"
     x="202.5">70</text>
  <ellipse
     id="ellipse1015"
     ry="30"
     rx="30"
     cy="294.5"
     cx="284.5"
     fill="none"
     stroke-width="1"
     stroke="black" />
  <text
     id="text1017"
     font-size="20"
     font-family="Times New Roman"
     y="300.5"
     x="269.5">100</text>
  <ellipse
     id="ellipse1019"
     ry="30"
     rx="30"
     cy="294.5"
     cx="458.5"
     fill="none"
     stroke-width="1"
     stroke="black" />
  <text
     id="text1021"
     font-size="20"
     font-family="Times New Roman"
     y="300.5"
     x="443.5">140</text>
  <ellipse
     id="ellipse1023"
     ry="30"
     rx="30"
     cy="294.5"
     cx="151.5"
     fill="none"
     stroke-width="1"
     stroke="black" />
  <text
     id="text1025"
     font-size="20"
     font-family="Times New Roman"
     y="300.5"
     x="141.5">50</text>
  <ellipse
     id="ellipse1027"
     ry="30"
     rx="30"
     cy="372.5"
     cx="340.5"
     fill="none"
     stroke-width="1"
     stroke="black" />
  <text
     id="text1029"
     font-size="20"
     font-family="Times New Roman"
     y="378.5"
     x="325.5">110</text>
  <ellipse
     id="ellipse1031"
     ry="30"
     rx="30"
     cy="372.5"
     cx="247.5"
     fill="none"
     stroke-width="1"
     stroke="black" />
  <text
     id="text1033"
     font-size="20"
     font-family="Times New Roman"
     y="378.5"
     x="237.5">90</text>
  <polygon
     id="polygon1035"
     points="112.114,135.949 82.886,177.051"
     stroke-width="1"
     stroke="black" />
  <polygon
     id="polygon1037"
     points="82.886,177.051 91.597,173.429 83.447,167.634"
     stroke-width="1"
     fill="black" />
  <polygon
     id="polygon1039"
     points="144.508,137.476 166.492,175.524"
     stroke-width="1"
     stroke="black" />
  <polygon
     id="polygon1041"
     points="166.492,175.524 166.819,166.096 158.16,171.099"
     stroke-width="1"
     fill="black" />
  <polygon
     id="polygon1043"
     points="55.224,229.685 40.776,269.315"
     stroke-width="1"
     stroke="black" />
  <polygon
     id="polygon1045"
     points="40.776,269.315 48.214,263.511 38.819,260.086"
     stroke-width="1"
     fill="black" />
  <polygon
     id="polygon1047"
     points="73.06,230.532 82.94,268.468"
     stroke-width="1"
     stroke="black" />
  <polygon
     id="polygon1049"
     points="82.94,268.468 85.762,259.466 76.085,261.987"
     stroke-width="1"
     fill="black" />
  <polygon
     id="polygon1051"
     points="190.987,229.96 203.013,266.04"
     stroke-width="1"
     stroke="black" />
  <polygon
     id="polygon1053"
     points="203.013,266.04 205.227,256.869 195.74,260.031"
     stroke-width="1"
     fill="black" />
  <polygon
     id="polygon1055"
     points="343.45,139.766 331.55,173.234"
     stroke-width="1"
     stroke="black" />
  <polygon
     id="polygon1057"
     points="331.55,173.234 338.941,167.371 329.519,164.021"
     stroke-width="1"
     fill="black" />
  <polygon
     id="polygon1059"
     points="213.363,56.874 154.637,95.126"
     stroke-width="1"
     stroke="black" />
  <polygon
     id="polygon1061"
     points="154.637,95.126 164.07,94.949 158.612,86.57"
     stroke-width="1"
     fill="black" />
  <polygon
     style="stroke:#ff0000;stroke-opacity:1"
     id="polygon1063"
     points="264.027,56.26 327.973,95.74"
     stroke-width="1"
     stroke="black" />
  <polygon
     style="fill:#ff0000;fill-opacity:1"
     id="polygon1065"
     points="327.973,95.74 323.793,87.283 318.539,95.792"
     stroke-width="1"
     fill="black" />
  <polygon
     id="polygon1067"
     points="369.751,136.717 395.249,176.283"
     stroke-width="1"
     stroke="black" />
  <polygon
     id="polygon1069"
     points="395.249,176.283 395.118,166.85 386.712,172.267"
     stroke-width="1"
     fill="black" />
  <polygon
     id="polygon1071"
     points="310.41,229.375 295.59,266.625"
     stroke-width="1"
     stroke="black" />
  <polygon
     id="polygon1073"
     points="295.59,266.625 303.193,261.04 293.902,257.343"
     stroke-width="1"
     fill="black" />
  <polygon
     id="polygon1075"
     points="425.031,228.275 444.969,267.725"
     stroke-width="1"
     stroke="black" />
  <polygon
     id="polygon1077"
     points="444.969,267.725 445.823,258.33 436.898,262.84"
     stroke-width="1"
     fill="black" />
  <polygon
     id="polygon1079"
     points="172.29,230.051 160.71,265.949"
     stroke-width="1"
     stroke="black" />
  <polygon
     id="polygon1081"
     points="160.71,265.949 167.925,259.87 158.408,256.8"
     stroke-width="1"
     fill="black" />
  <polygon
     id="polygon1083"
     points="301.996,318.87 323.004,348.13"
     stroke-width="1"
     stroke="black" />
  <polygon
     id="polygon1085"
     points="323.004,348.13 322.4,338.716 314.277,344.548"
     stroke-width="1"
     fill="black" />
  <polygon
     id="polygon1087"
     points="271.642,321.605 260.358,345.395"
     stroke-width="1"
     stroke="black" />
  <polygon
     id="polygon1089"
     points="260.358,345.395 268.304,340.31 259.269,336.024"
     stroke-width="1"
     fill="black" />
</svg>
