<?xml version="1.0" standalone="no"?>
<!DOCTYPE svg PUBLIC "-//W3C//DTD SVG 1.1//EN" "http://www.w3.org/Graphics/SVG/1.1/DTD/svg11.dtd">

<svg width="700" height="400" version="1.1" xmlns="http://www.w3.org/2000/svg">
	<ellipse stroke="black" stroke-width="1" fill="none" cx="236.5" cy="181.5" rx="30" ry="30"/>
	<text x="231.5" y="187.5" font-family="Times New Roman" font-size="20">3</text>
	<ellipse stroke="black" stroke-width="1" fill="none" cx="198.5" cy="257.5" rx="30" ry="30"/>
	<text x="193.5" y="263.5" font-family="Times New Roman" font-size="20">2</text>
	<ellipse stroke="black" stroke-width="1" fill="none" cx="285.5" cy="104.5" rx="30" ry="30"/>
	<text x="280.5" y="110.5" font-family="Times New Roman" font-size="20">4</text>
	<ellipse stroke="black" stroke-width="1" fill="none" cx="164.5" cy="330.5" rx="30" ry="30"/>
	<text x="159.5" y="336.5" font-family="Times New Roman" font-size="20">1</text>
	<ellipse stroke="black" stroke-width="1" fill="none" cx="334.5" cy="30.5" rx="30" ry="30"/>
	<text x="329.5" y="36.5" font-family="Times New Roman" font-size="20">5</text>
	<ellipse stroke="black" stroke-width="1" fill="none" cx="392.5" cy="104.5" rx="30" ry="30"/>
	<text x="387.5" y="110.5" font-family="Times New Roman" font-size="20">6</text>
	<ellipse stroke="black" stroke-width="1" fill="none" cx="441.5" cy="175.5" rx="30" ry="30"/>
	<text x="436.5" y="181.5" font-family="Times New Roman" font-size="20">7</text>
	<ellipse stroke="black" stroke-width="1" fill="none" cx="491.5" cy="251.5" rx="30" ry="30"/>
	<text x="486.5" y="257.5" font-family="Times New Roman" font-size="20">8</text>
	<ellipse stroke="black" stroke-width="1" fill="none" cx="531.5" cy="324.5" rx="30" ry="30"/>
	<text x="526.5" y="330.5" font-family="Times New Roman" font-size="20">9</text>
	<ellipse stroke="black" stroke-width="1" fill="none" cx="450.5" cy="326.5" rx="30" ry="30"/>
	<text x="438.5" y="332.5" font-family="Times New Roman" font-size="20">7.5</text>
	<polygon stroke="black" stroke-width="1" points="223.084,208.333 211.916,230.667"/>
	<polygon fill="black" stroke-width="1" points="211.916,230.667 219.966,225.748 211.022,221.276"/>
	<polygon stroke="black" stroke-width="1" points="185.834,284.695 177.166,303.305"/>
	<polygon fill="black" stroke-width="1" points="177.166,303.305 185.076,298.164 176.011,293.942"/>
	<polygon stroke="black" stroke-width="1" points="353.006,54.112 373.994,80.888"/>
	<polygon fill="black" stroke-width="1" points="373.994,80.888 372.994,71.507 365.123,77.676"/>
	<polygon stroke="black" stroke-width="1" points="269.394,129.81 252.606,156.19"/>
	<polygon fill="black" stroke-width="1" points="252.606,156.19 261.12,152.125 252.683,146.756"/>
	<polygon stroke="black" stroke-width="1" points="317.937,55.513 302.063,79.487"/>
	<polygon fill="black" stroke-width="1" points="302.063,79.487 310.649,75.577 302.311,70.056"/>
	<polygon stroke="black" stroke-width="1" points="409.54,129.191 424.46,150.809"/>
	<polygon fill="black" stroke-width="1" points="424.46,150.809 424.031,141.385 415.801,147.065"/>
	<polygon stroke="black" stroke-width="1" points="457.988,200.563 475.012,226.437"/>
	<polygon fill="black" stroke-width="1" points="475.012,226.437 474.792,217.006 466.437,222.502"/>
	<polygon stroke="black" stroke-width="1" points="505.916,277.809 517.084,298.191"/>
	<polygon fill="black" stroke-width="1" points="517.084,298.191 517.625,288.772 508.855,293.578"/>
	<polygon stroke="black" stroke-width="1" points="477.11,277.823 464.89,300.177"/>
	<polygon fill="black" stroke-width="1" points="464.89,300.177 473.115,295.555 464.34,290.759"/>
</svg>
