<?xml version="1.0" standalone="no"?>
<!DOCTYPE svg PUBLIC "-//W3C//DTD SVG 1.1//EN" "http://www.w3.org/Graphics/SVG/1.1/DTD/svg11.dtd">

<svg width="375" height="450" version="1.1" xmlns="http://www.w3.org/2000/svg">
	<ellipse stroke="black" stroke-width="1" fill="none" cx="196.5" cy="47.5" rx="30" ry="30"/>
	<text x="189.5" y="53.5" font-family="Times New Roman" font-size="20">A</text>
	<ellipse stroke="black" stroke-width="1" fill="none" cx="196.5" cy="146.5" rx="30" ry="30"/>
	<text x="189.5" y="152.5" font-family="Times New Roman" font-size="20">B</text>
	<ellipse stroke="black" stroke-width="1" fill="none" cx="122.5" cy="262.5" rx="30" ry="30"/>
	<text x="115.5" y="268.5" font-family="Times New Roman" font-size="20">D</text>
	<ellipse stroke="black" stroke-width="1" fill="none" cx="337.5" cy="262.5" rx="30" ry="30"/>
	<text x="330.5" y="268.5" font-family="Times New Roman" font-size="20">G</text>
	<ellipse stroke="black" stroke-width="1" fill="none" cx="265.5" cy="262.5" rx="30" ry="30"/>
	<text x="259.5" y="268.5" font-family="Times New Roman" font-size="20">F</text>
	<ellipse stroke="black" stroke-width="1" fill="none" cx="44.5" cy="262.5" rx="30" ry="30"/>
	<text x="37.5" y="268.5" font-family="Times New Roman" font-size="20">C</text>
	<ellipse stroke="black" stroke-width="1" fill="none" cx="196.5" cy="262.5" rx="30" ry="30"/>
	<text x="190.5" y="268.5" font-family="Times New Roman" font-size="20">E</text>
	<ellipse stroke="black" stroke-width="1" fill="none" cx="103.5" cy="386.5" rx="30" ry="30"/>
	<text x="100.5" y="392.5" font-family="Times New Roman" font-size="20">I</text>
	<ellipse stroke="black" stroke-width="1" fill="none" cx="172.5" cy="386.5" rx="30" ry="30"/>
	<text x="168.5" y="392.5" font-family="Times New Roman" font-size="20">J</text>
	<ellipse stroke="black" stroke-width="1" fill="none" cx="32.5" cy="386.5" rx="30" ry="30"/>
	<text x="25.5" y="392.5" font-family="Times New Roman" font-size="20">H</text>
	<polygon stroke="black" stroke-width="1" points="196.5,77.5 196.5,116.5"/>
	<polygon fill="black" stroke-width="1" points="196.5,116.5 201.5,108.5 191.5,108.5"/>
	<polygon stroke="black" stroke-width="1" points="172.651,164.7 68.349,244.3"/>
	<polygon fill="black" stroke-width="1" points="68.349,244.3 77.742,243.421 71.675,235.472"/>
	<polygon stroke="black" stroke-width="1" points="180.366,171.792 138.634,237.208"/>
	<polygon fill="black" stroke-width="1" points="138.634,237.208 147.152,233.153 138.722,227.775"/>
	<polygon stroke="black" stroke-width="1" points="196.5,176.5 196.5,232.5"/>
	<polygon fill="black" stroke-width="1" points="196.5,232.5 201.5,224.5 191.5,224.5"/>
	<polygon stroke="black" stroke-width="1" points="211.837,172.283 250.163,236.717"/>
	<polygon fill="black" stroke-width="1" points="250.163,236.717 250.371,227.285 241.776,232.397"/>
	<polygon stroke="black" stroke-width="1" points="219.667,165.56 314.333,243.44"/>
	<polygon fill="black" stroke-width="1" points="314.333,243.44 311.331,234.496 304.978,242.219"/>
	<polygon stroke="black" stroke-width="1" points="104.878,286.779 50.122,362.221"/>
	<polygon fill="black" stroke-width="1" points="50.122,362.221 58.868,358.684 50.775,352.81"/>
	<polygon stroke="black" stroke-width="1" points="117.956,292.154 108.044,356.846"/>
	<polygon fill="black" stroke-width="1" points="108.044,356.846 114.198,349.696 104.313,348.181"/>
	<polygon stroke="black" stroke-width="1" points="133.719,290.323 161.281,358.677"/>
	<polygon fill="black" stroke-width="1" points="161.281,358.677 162.926,349.387 153.652,353.127"/>
</svg>
