<?xml version="1.0" standalone="no"?>
<!DOCTYPE svg PUBLIC "-//W3C//DTD SVG 1.1//EN" "http://www.w3.org/Graphics/SVG/1.1/DTD/svg11.dtd">

<svg width="460" height="370" version="1.1" xmlns="http://www.w3.org/2000/svg">
	<ellipse stroke="black" stroke-width="1" fill="none" cx="222.5" cy="32.5" rx="30" ry="30"/>
	<text x="215.5" y="38.5" font-family="Times New Roman" font-size="20">A</text>
	<ellipse stroke="black" stroke-width="1" fill="none" cx="70.5" cy="124.5" rx="30" ry="30"/>
	<text x="63.5" y="130.5" font-family="Times New Roman" font-size="20">B</text>
	<ellipse stroke="black" stroke-width="1" fill="none" cx="167.5" cy="124.5" rx="30" ry="30"/>
	<text x="160.5" y="130.5" font-family="Times New Roman" font-size="20">C</text>
	<ellipse stroke="black" stroke-width="1" fill="none" cx="278.5" cy="124.5" rx="30" ry="30"/>
	<text x="271.5" y="130.5" font-family="Times New Roman" font-size="20">D</text>
	<ellipse stroke="black" stroke-width="1" fill="none" cx="374.5" cy="124.5" rx="30" ry="30"/>
	<text x="368.5" y="130.5" font-family="Times New Roman" font-size="20">E</text>
	<ellipse stroke="black" stroke-width="1" fill="none" cx="35.5" cy="228.5" rx="30" ry="30"/>
	<text x="29.5" y="234.5" font-family="Times New Roman" font-size="20">F</text>
	<ellipse stroke="black" stroke-width="1" fill="none" cx="97.5" cy="228.5" rx="30" ry="30"/>
	<text x="90.5" y="234.5" font-family="Times New Roman" font-size="20">G</text>
	<ellipse stroke="black" stroke-width="1" fill="none" cx="167.5" cy="228.5" rx="30" ry="30"/>
	<text x="160.5" y="234.5" font-family="Times New Roman" font-size="20">H</text>
	<ellipse stroke="black" stroke-width="1" fill="none" cx="239.5" cy="228.5" rx="30" ry="30"/>
	<text x="236.5" y="234.5" font-family="Times New Roman" font-size="20">I</text>
	<ellipse stroke="black" stroke-width="1" fill="none" cx="307.5" cy="228.5" rx="30" ry="30"/>
	<text x="303.5" y="234.5" font-family="Times New Roman" font-size="20">J</text>
	<ellipse stroke="black" stroke-width="1" fill="none" cx="374.5" cy="228.5" rx="30" ry="30"/>
	<text x="367.5" y="234.5" font-family="Times New Roman" font-size="20">K</text>
	<ellipse stroke="black" stroke-width="1" fill="none" cx="270.5" cy="337.5" rx="30" ry="30"/>
	<text x="264.5" y="343.5" font-family="Times New Roman" font-size="20">L</text>
	<ellipse stroke="black" stroke-width="1" fill="none" cx="338.5" cy="337.5" rx="30" ry="30"/>
	<text x="329.5" y="343.5" font-family="Times New Roman" font-size="20">M</text>
	<polygon stroke="black" stroke-width="1" points="196.835,48.034 96.165,108.966"/>
	<polygon fill="black" stroke-width="1" points="96.165,108.966 105.598,109.101 100.42,100.546"/>
	<polygon stroke="black" stroke-width="1" points="207.106,58.249 182.894,98.751"/>
	<polygon fill="black" stroke-width="1" points="182.894,98.751 191.29,94.45 182.707,89.318"/>
	<polygon stroke="black" stroke-width="1" points="238.098,58.126 262.902,98.874"/>
	<polygon fill="black" stroke-width="1" points="262.902,98.874 263.013,89.441 254.471,94.64"/>
	<polygon stroke="black" stroke-width="1" points="248.165,48.034 348.835,108.966"/>
	<polygon fill="black" stroke-width="1" points="348.835,108.966 344.58,100.546 339.402,109.101"/>
	<polygon stroke="black" stroke-width="1" points="60.931,152.933 45.069,200.067"/>
	<polygon fill="black" stroke-width="1" points="45.069,200.067 52.359,194.08 42.882,190.89"/>
	<polygon stroke="black" stroke-width="1" points="78.039,153.537 89.961,199.463"/>
	<polygon fill="black" stroke-width="1" points="89.961,199.463 92.791,190.463 83.112,192.976"/>
	<polygon stroke="black" stroke-width="1" points="167.5,154.5 167.5,198.5"/>
	<polygon fill="black" stroke-width="1" points="167.5,198.5 172.5,190.5 162.5,190.5"/>
	<polygon stroke="black" stroke-width="1" points="267.966,152.59 250.034,200.41"/>
	<polygon fill="black" stroke-width="1" points="250.034,200.41 257.524,194.675 248.161,191.164"/>
	<polygon stroke="black" stroke-width="1" points="286.558,153.398 299.442,199.602"/>
	<polygon fill="black" stroke-width="1" points="299.442,199.602 302.109,190.553 292.477,193.239"/>
	<polygon stroke="black" stroke-width="1" points="298.848,146.544 354.152,206.456"/>
	<polygon fill="black" stroke-width="1" points="354.152,206.456 352.399,197.186 345.051,203.969"/>
	<polygon stroke="black" stroke-width="1" points="297.857,256.908 280.143,309.092"/>
	<polygon fill="black" stroke-width="1" points="280.143,309.092 287.449,303.124 277.98,299.909"/>
	<polygon stroke="black" stroke-width="1" points="315.707,257.356 330.293,308.644"/>
	<polygon fill="black" stroke-width="1" points="330.293,308.644 332.914,299.582 323.296,302.317"/>
</svg>
