<?xml version="1.0" standalone="no"?>
<!DOCTYPE svg PUBLIC "-//W3C//DTD SVG 1.1//EN" "http://www.w3.org/Graphics/SVG/1.1/DTD/svg11.dtd">

<svg width="420" height="500" version="1.1" xmlns="http://www.w3.org/2000/svg">
	<ellipse stroke="black" stroke-width="1" fill="none" cx="187.5" cy="33.5" rx="30" ry="30"/>
	<ellipse stroke="black" stroke-width="1" fill="none" cx="125.5" cy="118.5" rx="30" ry="30"/>
	<text x="120.5" y="124.5" font-family="Times New Roman" font-size="20">d</text>
	<ellipse stroke="black" stroke-width="1" fill="none" cx="72.5" cy="200.5" rx="30" ry="30"/>
	<text x="67.5" y="206.5" font-family="Times New Roman" font-size="20">o</text>
	<ellipse stroke="black" stroke-width="1" fill="none" cx="31.5" cy="289.5" rx="30" ry="30"/>
	<text x="26.5" y="295.5" font-family="Times New Roman" font-size="20">g</text>
	<ellipse stroke="black" stroke-width="1" fill="none" cx="31.5" cy="289.5" rx="24" ry="24"/>
	<ellipse stroke="black" stroke-width="1" fill="none" cx="101.5" cy="289.5" rx="30" ry="30"/>
	<text x="98.5" y="295.5" font-family="Times New Roman" font-size="20">t</text>
	<ellipse stroke="black" stroke-width="1" fill="none" cx="101.5" cy="289.5" rx="24" ry="24"/>
	<ellipse stroke="black" stroke-width="1" fill="none" cx="254.5" cy="118.5" rx="30" ry="30"/>
	<text x="250.5" y="124.5" font-family="Times New Roman" font-size="20">c</text>
	<ellipse stroke="black" stroke-width="1" fill="none" cx="324.5" cy="206.5" rx="30" ry="30"/>
	<text x="320.5" y="212.5" font-family="Times New Roman" font-size="20">a</text>
	<ellipse stroke="black" stroke-width="1" fill="none" cx="291.5" cy="289.5" rx="30" ry="30"/>
	<text x="288.5" y="295.5" font-family="Times New Roman" font-size="20">t</text>
	<ellipse stroke="black" stroke-width="1" fill="none" cx="291.5" cy="289.5" rx="24" ry="24"/>
	<ellipse stroke="black" stroke-width="1" fill="none" cx="372.5" cy="289.5" rx="30" ry="30"/>
	<text x="367.5" y="295.5" font-family="Times New Roman" font-size="20">n</text>
	<ellipse stroke="black" stroke-width="1" fill="none" cx="372.5" cy="289.5" rx="24" ry="24"/>
	<ellipse stroke="black" stroke-width="1" fill="none" cx="372.5" cy="369.5" rx="30" ry="30"/>
	<text x="369.5" y="375.5" font-family="Times New Roman" font-size="20">t</text>
	<ellipse stroke="black" stroke-width="1" fill="none" cx="187.5" cy="200.5" rx="30" ry="30"/>
	<text x="183.5" y="206.5" font-family="Times New Roman" font-size="20">a</text>
	<ellipse stroke="black" stroke-width="1" fill="none" cx="229.5" cy="289.5" rx="30" ry="30"/>
	<text x="224.5" y="295.5" font-family="Times New Roman" font-size="20">y</text>
	<ellipse stroke="black" stroke-width="1" fill="none" cx="229.5" cy="289.5" rx="24" ry="24"/>
	<ellipse stroke="black" stroke-width="1" fill="none" cx="168.5" cy="289.5" rx="30" ry="30"/>
	<text x="165.5" y="295.5" font-family="Times New Roman" font-size="20">t</text>
	<ellipse stroke="black" stroke-width="1" fill="none" cx="216.5" cy="369.5" rx="30" ry="30"/>
	<text x="212.5" y="375.5" font-family="Times New Roman" font-size="20">e</text>
	<ellipse stroke="black" stroke-width="1" fill="none" cx="216.5" cy="369.5" rx="24" ry="24"/>
	<ellipse stroke="black" stroke-width="1" fill="none" cx="132.5" cy="369.5" rx="30" ry="30"/>
	<text x="128.5" y="375.5" font-family="Times New Roman" font-size="20">a</text>
	<ellipse stroke="black" stroke-width="1" fill="none" cx="132.5" cy="369.5" rx="24" ry="24"/>
	<ellipse stroke="black" stroke-width="1" fill="none" cx="216.5" cy="459.5" rx="30" ry="30"/>
	<text x="212.5" y="465.5" font-family="Times New Roman" font-size="20">s</text>
	<ellipse stroke="black" stroke-width="1" fill="none" cx="216.5" cy="459.5" rx="24" ry="24"/>
	<polygon stroke="black" stroke-width="1" points="169.821,57.737 143.179,94.263"/>
	<polygon fill="black" stroke-width="1" points="143.179,94.263 151.933,90.746 143.854,84.853"/>
	<polygon stroke="black" stroke-width="1" points="109.215,143.695 88.785,175.305"/>
	<polygon fill="black" stroke-width="1" points="88.785,175.305 97.327,171.3 88.928,165.872"/>
	<polygon stroke="black" stroke-width="1" points="59.948,227.748 44.052,262.252"/>
	<polygon fill="black" stroke-width="1" points="44.052,262.252 51.941,257.078 42.858,252.894"/>
	<polygon stroke="black" stroke-width="1" points="81.794,229.024 92.206,260.976"/>
	<polygon fill="black" stroke-width="1" points="92.206,260.976 94.481,251.821 84.973,254.919"/>
	<polygon stroke="black" stroke-width="1" points="206.071,57.061 235.929,94.939"/>
	<polygon fill="black" stroke-width="1" points="235.929,94.939 234.903,85.561 227.05,91.752"/>
	<polygon stroke="black" stroke-width="1" points="273.176,141.978 305.824,183.022"/>
	<polygon fill="black" stroke-width="1" points="305.824,183.022 304.757,173.649 296.931,179.874"/>
	<polygon stroke="black" stroke-width="1" points="313.416,234.377 302.584,261.623"/>
	<polygon fill="black" stroke-width="1" points="302.584,261.623 310.186,256.036 300.893,252.341"/>
	<polygon stroke="black" stroke-width="1" points="339.519,232.47 357.481,263.53"/>
	<polygon fill="black" stroke-width="1" points="357.481,263.53 357.805,254.102 349.148,259.108"/>
	<polygon stroke="black" stroke-width="1" points="372.5,319.5 372.5,339.5"/>
	<polygon fill="black" stroke-width="1" points="372.5,339.5 377.5,331.5 367.5,331.5"/>
	<polygon stroke="black" stroke-width="1" points="143.593,142.43 169.407,176.57"/>
	<polygon fill="black" stroke-width="1" points="169.407,176.57 168.57,167.173 160.594,173.204"/>
	<polygon stroke="black" stroke-width="1" points="200.303,227.631 216.697,262.369"/>
	<polygon fill="black" stroke-width="1" points="216.697,262.369 217.804,253.001 208.761,257.268"/>
	<polygon stroke="black" stroke-width="1" points="181.237,229.839 174.763,260.161"/>
	<polygon fill="black" stroke-width="1" points="174.763,260.161 181.323,253.381 171.544,251.294"/>
	<polygon stroke="black" stroke-width="1" points="156.189,316.858 144.811,342.142"/>
	<polygon fill="black" stroke-width="1" points="144.811,342.142 152.653,336.899 143.534,332.795"/>
	<polygon stroke="black" stroke-width="1" points="183.935,315.225 201.065,343.775"/>
	<polygon fill="black" stroke-width="1" points="201.065,343.775 201.237,334.343 192.662,339.488"/>
	<polygon stroke="black" stroke-width="1" points="216.5,399.5 216.5,429.5"/>
	<polygon fill="black" stroke-width="1" points="216.5,429.5 221.5,421.5 211.5,421.5"/>
</svg>
