<?xml version="1.0" standalone="no"?>
<!DOCTYPE svg PUBLIC "-//W3C//DTD SVG 1.1//EN" "http://www.w3.org/Graphics/SVG/1.1/DTD/svg11.dtd">

<svg width="450" height="430" version="1.1" xmlns="http://www.w3.org/2000/svg">
	<ellipse stroke="black" stroke-width="1" fill="none" cx="212.5" cy="32.5" rx="30" ry="30"/>
	<text x="202.5" y="38.5" font-family="Times New Roman" font-size="20">30</text>
	<ellipse stroke="black" stroke-width="1" fill="none" cx="150.5" cy="124.5" rx="30" ry="30"/>
	<text x="140.5" y="130.5" font-family="Times New Roman" font-size="20">15</text>
	<ellipse stroke="black" stroke-width="1" fill="none" cx="293.5" cy="124.5" rx="30" ry="30"/>
	<text x="283.5" y="130.5" font-family="Times New Roman" font-size="20">31</text>
	<ellipse stroke="black" stroke-width="1" fill="gray" cx="89.5" cy="214.5" rx="30" ry="30"/>
	<text x="79.5" y="220.5" font-family="Times New Roman" font-size="20">13</text>
	<ellipse stroke="black" stroke-width="1" fill="none" cx="212.5" cy="214.5" rx="30" ry="30"/>
	<text x="202.5" y="220.5" font-family="Times New Roman" font-size="20">20</text>
	<ellipse stroke="black" stroke-width="1" fill="none" cx="341.5" cy="205.5" rx="30" ry="30"/>
	<text x="331.5" y="211.5" font-family="Times New Roman" font-size="20">35</text>
	<ellipse stroke="black" stroke-width="1" fill="none" cx="314.5" cy="309.5" rx="30" ry="30"/>
	<text x="304.5" y="315.5" font-family="Times New Roman" font-size="20">33</text>
	<ellipse stroke="black" stroke-width="1" fill="none" cx="377.5" cy="309.5" rx="30" ry="30"/>
	<text x="367.5" y="315.5" font-family="Times New Roman" font-size="20">39</text>
	<ellipse stroke="black" stroke-width="1" fill="none" cx="341.5" cy="398.5" rx="30" ry="30"/>
	<text x="331.5" y="404.5" font-family="Times New Roman" font-size="20">36</text>
	<ellipse stroke="black" stroke-width="1" fill="none" cx="408.5" cy="398.5" rx="30" ry="30"/>
	<text x="398.5" y="404.5" font-family="Times New Roman" font-size="20">40</text>
	<ellipse stroke="black" stroke-width="1" fill="none" cx="176.5" cy="309.5" rx="30" ry="30"/>
	<text x="166.5" y="315.5" font-family="Times New Roman" font-size="20">16</text>
	<ellipse stroke="black" stroke-width="1" fill="none" cx="239.5" cy="309.5" rx="30" ry="30"/>
	<text x="229.5" y="315.5" font-family="Times New Roman" font-size="20">29</text>
	<ellipse stroke="black" stroke-width="1" fill="gray" cx="48.5" cy="309.5" rx="30" ry="30"/>
	<text x="38.5" y="315.5" font-family="Times New Roman" font-size="20">12</text>
	<ellipse stroke="black" stroke-width="1" fill="gray" cx="115.5" cy="309.5" rx="30" ry="30"/>
	<text x="105.5" y="315.5" font-family="Times New Roman" font-size="20">14</text>
	<polygon stroke="black" stroke-width="1" points="195.734,57.378 167.266,99.622"/>
	<polygon fill="black" stroke-width="1" points="167.266,99.622 175.883,95.782 167.59,90.194"/>
	<polygon stroke="black" stroke-width="1" points="232.324,55.017 273.676,101.983"/>
	<polygon fill="black" stroke-width="1" points="273.676,101.983 272.142,92.675 264.636,99.283"/>
	<polygon stroke="black" stroke-width="1" points="133.668,149.333 106.332,189.667"/>
	<polygon fill="black" stroke-width="1" points="106.332,189.667 114.959,185.85 106.681,180.239"/>
	<polygon stroke="black" stroke-width="1" points="167.519,149.205 195.481,189.795"/>
	<polygon fill="black" stroke-width="1" points="195.481,189.795 195.06,180.37 186.825,186.043"/>
	<polygon stroke="black" stroke-width="1" points="308.794,150.309 326.206,179.691"/>
	<polygon fill="black" stroke-width="1" points="326.206,179.691 326.429,170.26 317.826,175.358"/>
	<polygon stroke="black" stroke-width="1" points="333.961,234.537 322.039,280.463"/>
	<polygon fill="black" stroke-width="1" points="322.039,280.463 328.888,273.976 319.209,271.463"/>
	<polygon stroke="black" stroke-width="1" points="351.313,233.85 367.687,281.15"/>
	<polygon fill="black" stroke-width="1" points="367.687,281.15 369.795,271.955 360.345,275.226"/>
	<polygon stroke="black" stroke-width="1" points="366.251,337.311 352.749,370.689"/>
	<polygon fill="black" stroke-width="1" points="352.749,370.689 360.384,365.148 351.114,361.398"/>
	<polygon stroke="black" stroke-width="1" points="387.368,337.831 398.632,370.169"/>
	<polygon fill="black" stroke-width="1" points="398.632,370.169 400.722,360.97 391.279,364.259"/>
	<polygon stroke="black" stroke-width="1" points="77.612,242.044 60.388,281.956"/>
	<polygon fill="black" stroke-width="1" points="60.388,281.956 68.148,276.592 58.967,272.629"/>
	<polygon stroke="black" stroke-width="1" points="97.419,243.436 107.581,280.564"/>
	<polygon fill="black" stroke-width="1" points="107.581,280.564 110.292,271.528 100.646,274.168"/>
	<polygon stroke="black" stroke-width="1" points="201.869,242.553 187.131,281.447"/>
	<polygon fill="black" stroke-width="1" points="187.131,281.447 194.641,275.738 185.29,272.194"/>
	<polygon stroke="black" stroke-width="1" points="220.702,243.357 231.298,280.643"/>
	<polygon fill="black" stroke-width="1" points="231.298,280.643 233.921,271.581 224.302,274.315"/>
</svg>
