<?xml version="1.0" standalone="no"?>
<!DOCTYPE svg PUBLIC "-//W3C//DTD SVG 1.1//EN" "http://www.w3.org/Graphics/SVG/1.1/DTD/svg11.dtd">

<svg width="500" height="320" version="1.1" xmlns="http://www.w3.org/2000/svg">
	<ellipse stroke="black" stroke-width="1" fill="none" cx="231.5" cy="34.5" rx="30" ry="30"/>
	<text x="221.5" y="40.5" font-family="Times New Roman" font-size="20">30</text>
	<ellipse stroke="black" stroke-width="1" fill="none" cx="174.5" cy="119.5" rx="30" ry="30"/>
	<text x="164.5" y="125.5" font-family="Times New Roman" font-size="20">10</text>
	<ellipse stroke="black" stroke-width="1" fill="none" cx="295.5" cy="119.5" rx="30" ry="30"/>
	<text x="285.5" y="125.5" font-family="Times New Roman" font-size="20">45</text>
	<ellipse stroke="black" stroke-width="1" fill="none" cx="127.5" cy="200.5" rx="30" ry="30"/>
	<text x="122.5" y="206.5" font-family="Times New Roman" font-size="20">5</text>
	<ellipse stroke="black" stroke-width="1" fill="none" cx="204.5" cy="200.5" rx="30" ry="30"/>
	<text x="194.5" y="206.5" font-family="Times New Roman" font-size="20">20</text>
	<ellipse stroke="black" stroke-width="1" fill="none" cx="275.5" cy="200.5" rx="30" ry="30"/>
	<text x="265.5" y="206.5" font-family="Times New Roman" font-size="20">35</text>
	<ellipse stroke="black" stroke-width="1" fill="none" cx="350.5" cy="193.5" rx="30" ry="30"/>
	<text x="340.5" y="199.5" font-family="Times New Roman" font-size="20">50</text>
	<ellipse stroke="black" stroke-width="1" fill="none" cx="167.5" cy="276.5" rx="30" ry="30"/>
	<text x="157.5" y="282.5" font-family="Times New Roman" font-size="20">15</text>
	<ellipse stroke="black" stroke-width="1" fill="none" cx="242.5" cy="276.5" rx="30" ry="30"/>
	<text x="232.5" y="282.5" font-family="Times New Roman" font-size="20">25</text>
	<ellipse stroke="black" stroke-width="1" fill="none" cx="316.5" cy="276.5" rx="30" ry="30"/>
	<text x="306.5" y="282.5" font-family="Times New Roman" font-size="20">40</text>
	<ellipse stroke="black" stroke-width="1" fill="none" cx="394.5" cy="276.5" rx="30" ry="30"/>
	<text x="384.5" y="282.5" font-family="Times New Roman" font-size="20">55</text>
	<polygon stroke="black" stroke-width="1" points="214.791,59.416 191.209,94.584"/>
	<polygon fill="black" stroke-width="1" points="191.209,94.584 199.817,90.724 191.511,85.155"/>
	<polygon stroke="black" stroke-width="1" points="249.545,58.466 277.455,95.534"/>
	<polygon fill="black" stroke-width="1" points="277.455,95.534 276.637,86.135 268.649,92.15"/>
	<polygon stroke="black" stroke-width="1" points="159.444,145.448 142.556,174.552"/>
	<polygon fill="black" stroke-width="1" points="142.556,174.552 150.896,170.142 142.247,165.123"/>
	<polygon stroke="black" stroke-width="1" points="184.919,147.632 194.081,172.368"/>
	<polygon fill="black" stroke-width="1" points="194.081,172.368 195.991,163.129 186.613,166.602"/>
	<polygon stroke="black" stroke-width="1" points="191.368,227.473 180.632,249.527"/>
	<polygon fill="black" stroke-width="1" points="180.632,249.527 188.629,244.522 179.638,240.145"/>
	<polygon stroke="black" stroke-width="1" points="217.916,227.333 229.084,249.667"/>
	<polygon fill="black" stroke-width="1" points="229.084,249.667 229.978,240.276 221.034,244.748"/>
	<polygon stroke="black" stroke-width="1" points="288.309,148.625 282.691,171.375"/>
	<polygon fill="black" stroke-width="1" points="282.691,171.375 289.463,164.807 279.755,162.409"/>
	<polygon stroke="black" stroke-width="1" points="313.396,143.578 332.604,169.422"/>
	<polygon fill="black" stroke-width="1" points="332.604,169.422 331.845,160.019 323.819,165.984"/>
	<polygon stroke="black" stroke-width="1" points="289.744,226.903 302.256,250.097"/>
	<polygon fill="black" stroke-width="1" points="302.256,250.097 302.858,240.682 294.057,245.43"/>
	<polygon stroke="black" stroke-width="1" points="364.551,220.006 380.449,249.994"/>
	<polygon fill="black" stroke-width="1" points="380.449,249.994 381.119,240.584 372.284,245.268"/>
</svg>
