<?xml version="1.0" encoding="UTF-8" standalone="no"?>
<svg
   xmlns:dc="http://purl.org/dc/elements/1.1/"
   xmlns:cc="http://creativecommons.org/ns#"
   xmlns:rdf="http://www.w3.org/1999/02/22-rdf-syntax-ns#"
   xmlns:svg="http://www.w3.org/2000/svg"
   xmlns="http://www.w3.org/2000/svg"
   xmlns:sodipodi="http://sodipodi.sourceforge.net/DTD/sodipodi-0.dtd"
   xmlns:inkscape="http://www.inkscape.org/namespaces/inkscape"
   inkscape:version="1.0 (4035a4f, 2020-05-01)"
   sodipodi:docname="315_3.1_royaltree.svg"
   id="svg1091"
   version="1.1"
   height="500"
   width="600">
  <metadata
     id="metadata1097">
    <rdf:RDF>
      <cc:Work
         rdf:about="">
        <dc:format>image/svg+xml</dc:format>
        <dc:type
           rdf:resource="http://purl.org/dc/dcmitype/StillImage" />
      </cc:Work>
    </rdf:RDF>
  </metadata>
  <defs
     id="defs1095" />
  <sodipodi:namedview
     inkscape:current-layer="svg1091"
     inkscape:window-maximized="0"
     inkscape:window-y="23"
     inkscape:window-x="0"
     inkscape:cy="299.60972"
     inkscape:cx="270.37029"
     inkscape:zoom="1.7824197"
     showgrid="false"
     id="namedview1093"
     inkscape:window-height="1005"
     inkscape:window-width="1565"
     inkscape:pageshadow="2"
     inkscape:pageopacity="0"
     guidetolerance="10"
     gridtolerance="10"
     objecttolerance="10"
     borderopacity="1"
     bordercolor="#666666"
     pagecolor="#ffffff" />
  <ellipse
     id="ellipse975"
     ry="29.892141"
     rx="44.498886"
     cy="35.5"
     cx="394.10675"
     fill="none"
     stroke-width="1.21571"
     stroke="#000000" />
  <text
     id="text977"
     font-size="20px"
     font-family="'Times New Roman'"
     y="41.5"
     x="351.5">George VI</text>
  <ellipse
     id="ellipse979"
     ry="29.844969"
     rx="51.755081"
     cy="135.5"
     cx="297.18539"
     fill="none"
     stroke-width="1.31006"
     stroke="#000000" />
  <text
     id="text981"
     font-size="20px"
     font-family="'Times New Roman'"
     y="141.5"
     x="248.5">Elizabeth II</text>
  <ellipse
     id="ellipse983"
     ry="29.939449"
     rx="37.782372"
     cy="139.5"
     cx="499.62857"
     fill="none"
     stroke-width="1.1211"
     stroke="#000000" />
  <text
     id="text985"
     font-size="20"
     font-family="Times New Roman"
     y="145.5"
     x="462.5">Margaret</text>
  <ellipse
     id="ellipse987"
     ry="30"
     rx="30"
     cy="255.5"
     cx="461.5"
     fill="none"
     stroke-width="1"
     stroke="black" />
  <text
     id="text989"
     font-size="20"
     font-family="Times New Roman"
     y="261.5"
     x="437.5">David</text>
  <ellipse
     id="ellipse991"
     ry="30"
     rx="30"
     cy="255.5"
     cx="548.5"
     fill="none"
     stroke-width="1"
     stroke="black" />
  <text
     id="text993"
     font-size="20"
     font-family="Times New Roman"
     y="261.5"
     x="525.5">Sarah</text>
  <ellipse
     id="ellipse995"
     ry="30"
     rx="30"
     cy="255.5"
     cx="195.5"
     fill="none"
     stroke-width="1"
     stroke="black" />
  <text
     id="text997"
     font-size="20"
     font-family="Times New Roman"
     y="261.5"
     x="164.5">Charles</text>
  <ellipse
     id="ellipse999"
     ry="30"
     rx="30"
     cy="255.5"
     cx="395.5"
     fill="none"
     stroke-width="1"
     stroke="black" />
  <text
     id="text1001"
     font-size="20"
     font-family="Times New Roman"
     y="261.5"
     x="373.5">Anne</text>
  <ellipse
     id="ellipse1003"
     ry="30"
     rx="30"
     cy="345.5"
     cx="354.5"
     fill="none"
     stroke-width="1"
     stroke="black" />
  <text
     id="text1005"
     font-size="20"
     font-family="Times New Roman"
     y="351.5"
     x="333.5">Peter</text>
  <ellipse
     id="ellipse1007"
     ry="30"
     rx="30"
     cy="345.5"
     cx="451.5"
     fill="none"
     stroke-width="1"
     stroke="black" />
  <text
     id="text1009"
     font-size="20"
     font-family="Times New Roman"
     y="351.5"
     x="433.5">Zara</text>
  <ellipse
     id="ellipse1011"
     ry="29.958864"
     rx="35.187481"
     cy="345.5"
     cx="115.72861"
     fill="none"
     stroke-width="1.08227"
     stroke="#000000" />
  <text
     id="text1013"
     font-size="20"
     font-family="Times New Roman"
     y="351.5"
     x="82.5">William</text>
  <ellipse
     id="ellipse1015"
     ry="30"
     rx="30"
     cy="345.5"
     cx="264.5"
     fill="none"
     stroke-width="1"
     stroke="black" />
  <text
     id="text1017"
     font-size="20"
     font-family="Times New Roman"
     y="351.5"
     x="241.5">Harry</text>
  <ellipse
     id="ellipse1019"
     ry="30"
     rx="30"
     cy="447.5"
     cx="30.5"
     fill="none"
     stroke-width="1"
     stroke="black" />
  <text
     id="text1021"
     font-size="20"
     font-family="Times New Roman"
     y="453.5"
     x="1.5">George</text>
  <ellipse
     id="ellipse1023"
     ry="29.941416"
     rx="37.515388"
     cy="447.5"
     cx="115.34155"
     fill="none"
     stroke-width="1.11718"
     stroke="#000000" />
  <text
     id="text1025"
     font-size="20"
     font-family="Times New Roman"
     y="453.5"
     x="77.5">Charlotte</text>
  <ellipse
     id="ellipse1027"
     ry="30"
     rx="30"
     cy="447.5"
     cx="195.5"
     fill="none"
     stroke-width="1"
     stroke="black" />
  <text
     id="text1029"
     font-size="20"
     font-family="Times New Roman"
     y="453.5"
     x="172.5">Louis</text>
  <ellipse
     id="ellipse1031"
     ry="30"
     rx="30"
     cy="447.5"
     cx="264.5"
     fill="none"
     stroke-width="1"
     stroke="black" />
  <text
     id="text1033"
     font-size="20"
     font-family="Times New Roman"
     y="453.5"
     x="237.5">Archie</text>
  <polygon
     transform="matrix(0.76031518,0,0,0.83599482,89.782592,9.8855663)"
     id="polygon1035"
     points="316.713,118.287 374.287,60.713 "
     stroke-width="1"
     stroke="#000000" />
  <polygon
     transform="translate(10,-6)"
     id="polygon1037"
     points="318.835,109.094 316.713,118.287 325.906,116.165 "
     stroke-width="1"
     fill="#000000" />
  <polygon
     transform="matrix(0.96663998,0,0,0.96563928,13.91193,2.0752843)"
     id="polygon1039"
     points="476.976,118.603 417.024,60.397 "
     stroke-width="1"
     stroke="#000000" />
  <polygon
     transform="translate(-2,-2)"
     id="polygon1041"
     points="467.753,116.617 476.976,118.603 474.719,109.443 "
     stroke-width="1"
     fill="#000000" />
  <polygon
     id="polygon1043"
     points="275.912,162.222 215.088,232.778"
     stroke-width="1"
     stroke="black" />
  <polygon
     id="polygon1045"
     points="215.088,232.778 224.099,229.983 216.525,223.454"
     stroke-width="1"
     fill="black" />
  <polygon
     id="polygon1047"
     points="315.088,162.222 375.912,232.778"
     stroke-width="1"
     stroke="black" />
  <polygon
     id="polygon1049"
     points="375.912,232.778 374.475,223.454 366.901,229.983"
     stroke-width="1"
     fill="black" />
  <polygon
     id="polygon1051"
     points="489.384,168.081 470.616,226.919"
     stroke-width="1"
     stroke="black" />
  <polygon
     id="polygon1053"
     points="470.616,226.919 477.811,220.816 468.284,217.778"
     stroke-width="1"
     fill="black" />
  <polygon
     id="polygon1055"
     points="510.375,167.05 536.625,227.95"
     stroke-width="1"
     stroke="black" />
  <polygon
     id="polygon1057"
     points="536.625,227.95 538.05,218.625 528.867,222.583"
     stroke-width="1"
     fill="black" />
  <polygon
     id="polygon1059"
     points="383.063,282.801 366.937,318.199"
     stroke-width="1"
     stroke="black" />
  <polygon
     id="polygon1061"
     points="366.937,318.199 374.804,312.992 365.703,308.846"
     stroke-width="1"
     fill="black" />
  <polygon
     id="polygon1063"
     points="411.349,280.972 435.651,320.028"
     stroke-width="1"
     stroke="black" />
  <polygon
     id="polygon1065"
     points="435.651,320.028 435.67,310.594 427.179,315.877"
     stroke-width="1"
     fill="black" />
  <polygon
     transform="matrix(1.0489452,0,0,0.91189817,-4.5865044,26.474601)"
     id="polygon1067"
     points="134.569,323.201 175.431,277.799 "
     stroke-width="1"
     stroke="#000000" />
  <polygon
     transform="translate(2,-2)"
     id="polygon1069"
     points="136.204,313.91 134.569,323.201 143.637,320.6 "
     stroke-width="1"
     fill="#000000" />
  <polygon
     id="polygon1071"
     points="213.753,279.308 246.247,321.692"
     stroke-width="1"
     stroke="black" />
  <polygon
     id="polygon1073"
     points="246.247,321.692 245.348,312.301 237.412,318.385"
     stroke-width="1"
     fill="black" />
  <polygon
     id="polygon1075"
     points="95.429,368.658 49.571,424.342"
     stroke-width="1"
     stroke="black" />
  <polygon
     id="polygon1077"
     points="49.571,424.342 58.517,421.345 50.797,414.988"
     stroke-width="1"
     fill="black" />
  <polygon
     id="polygon1079"
     points="114.5,375.5 114.5,417.5"
     stroke-width="1"
     stroke="black" />
  <polygon
     id="polygon1081"
     points="114.5,417.5 119.5,409.5 109.5,409.5"
     stroke-width="1"
     fill="black" />
  <polygon
     transform="matrix(0.94087405,0,0,0.98461424,10.471676,6.5361714)"
     id="polygon1083"
     points="176.844,424.007 133.156,368.993 "
     stroke-width="1"
     stroke="#000000" />
  <polygon
     id="polygon1085"
     points="176.844,424.007 175.784,414.632 167.953,420.851"
     stroke-width="1"
     fill="black" />
  <polygon
     id="polygon1087"
     points="264.5,375.5 264.5,417.5"
     stroke-width="1"
     stroke="black" />
  <polygon
     id="polygon1089"
     points="264.5,417.5 269.5,409.5 259.5,409.5"
     stroke-width="1"
     fill="black" />
</svg>
