<?xml version="1.0" standalone="no"?>
<!DOCTYPE svg PUBLIC "-//W3C//DTD SVG 1.1//EN" "http://www.w3.org/Graphics/SVG/1.1/DTD/svg11.dtd">

<svg width="555" height="370" version="1.1" xmlns="http://www.w3.org/2000/svg">
	<ellipse stroke="black" stroke-width="1" fill="none" cx="312.5" cy="35.5" rx="30" ry="30"/>
	<ellipse stroke="black" stroke-width="1" fill="none" cx="400.5" cy="74.5" rx="30" ry="30"/>
	<text x="395.5" y="80.5" font-family="Times New Roman" font-size="20">g</text>
	<ellipse stroke="black" stroke-width="1" fill="none" cx="203.5" cy="74.5" rx="30" ry="30"/>
	<text x="200.5" y="80.5" font-family="Times New Roman" font-size="20">t</text>
	<ellipse stroke="black" stroke-width="1" fill="none" cx="400.5" cy="152.5" rx="30" ry="30"/>
	<text x="395.5" y="158.5" font-family="Times New Roman" font-size="20">o</text>
	<ellipse stroke="black" stroke-width="1" fill="none" cx="400.5" cy="152.5" rx="24" ry="24"/>
	<ellipse stroke="black" stroke-width="1" fill="none" cx="321.5" cy="232.5" rx="30" ry="30"/>
	<text x="317.5" y="238.5" font-family="Times New Roman" font-size="20">a</text>
	<ellipse stroke="black" stroke-width="1" fill="none" cx="286.5" cy="311.5" rx="30" ry="30"/>
	<text x="283.5" y="317.5" font-family="Times New Roman" font-size="20">l</text>
	<ellipse stroke="black" stroke-width="1" fill="none" cx="286.5" cy="311.5" rx="24" ry="24"/>
	<ellipse stroke="black" stroke-width="1" fill="none" cx="471.5" cy="232.5" rx="30" ry="30"/>
	<text x="468.5" y="238.5" font-family="Times New Roman" font-size="20">l</text>
	<ellipse stroke="black" stroke-width="1" fill="none" cx="520.5" cy="311.5" rx="30" ry="30"/>
	<text x="517.5" y="317.5" font-family="Times New Roman" font-size="20">f</text>
	<ellipse stroke="black" stroke-width="1" fill="none" cx="520.5" cy="311.5" rx="24" ry="24"/>
	<ellipse stroke="black" stroke-width="1" fill="none" cx="437.5" cy="311.5" rx="30" ry="30"/>
	<text x="432.5" y="317.5" font-family="Times New Roman" font-size="20">d</text>
	<ellipse stroke="black" stroke-width="1" fill="none" cx="370.5" cy="311.5" rx="30" ry="30"/>
	<text x="367.5" y="317.5" font-family="Times New Roman" font-size="20">t</text>
	<ellipse stroke="black" stroke-width="1" fill="none" cx="370.5" cy="311.5" rx="24" ry="24"/>
	<ellipse stroke="black" stroke-width="1" fill="none" cx="146.5" cy="147.5" rx="30" ry="30"/>
	<text x="141.5" y="153.5" font-family="Times New Roman" font-size="20">o</text>
	<ellipse stroke="black" stroke-width="1" fill="none" cx="104.5" cy="232.5" rx="30" ry="30"/>
	<text x="100.5" y="238.5" font-family="Times New Roman" font-size="20">a</text>
	<ellipse stroke="black" stroke-width="1" fill="none" cx="104.5" cy="311.5" rx="30" ry="30"/>
	<text x="99.5" y="317.5" font-family="Times New Roman" font-size="20">d</text>
	<ellipse stroke="black" stroke-width="1" fill="none" cx="177.5" cy="232.5" rx="30" ry="30"/>
	<text x="174.5" y="238.5" font-family="Times New Roman" font-size="20">l</text>
	<ellipse stroke="black" stroke-width="1" fill="none" cx="177.5" cy="311.5" rx="30" ry="30"/>
	<text x="174.5" y="317.5" font-family="Times New Roman" font-size="20">l</text>
	<ellipse stroke="black" stroke-width="1" fill="none" cx="248.5" cy="147.5" rx="30" ry="30"/>
	<text x="243.5" y="153.5" font-family="Times New Roman" font-size="20">h</text>
	<ellipse stroke="black" stroke-width="1" fill="none" cx="248.5" cy="232.5" rx="30" ry="30"/>
	<text x="244.5" y="238.5" font-family="Times New Roman" font-size="20">e</text>
	<ellipse stroke="black" stroke-width="1" fill="none" cx="248.5" cy="232.5" rx="24" ry="24"/>
	<polygon stroke="black" stroke-width="1" points="284.254,45.607 231.746,64.393"/>
	<polygon fill="black" stroke-width="1" points="231.746,64.393 240.963,66.406 237.594,56.991"/>
	<polygon stroke="black" stroke-width="1" points="339.927,47.655 373.073,62.345"/>
	<polygon fill="black" stroke-width="1" points="373.073,62.345 367.785,54.532 363.733,63.675"/>
	<polygon stroke="black" stroke-width="1" points="400.5,104.5 400.5,122.5"/>
	<polygon fill="black" stroke-width="1" points="400.5,122.5 405.5,114.5 395.5,114.5"/>
	<polygon stroke="black" stroke-width="1" points="379.421,173.846 342.579,211.154"/>
	<polygon fill="black" stroke-width="1" points="342.579,211.154 351.758,208.975 344.643,201.948"/>
	<polygon stroke="black" stroke-width="1" points="337.313,257.994 354.687,286.006"/>
	<polygon fill="black" stroke-width="1" points="354.687,286.006 354.719,276.572 346.221,281.843"/>
	<polygon stroke="black" stroke-width="1" points="309.348,259.929 298.652,284.071"/>
	<polygon fill="black" stroke-width="1" points="298.652,284.071 306.464,278.782 297.321,274.732"/>
	<polygon stroke="black" stroke-width="1" points="420.414,174.938 451.586,210.062"/>
	<polygon fill="black" stroke-width="1" points="451.586,210.062 450.016,200.76 442.537,207.398"/>
	<polygon stroke="black" stroke-width="1" points="459.64,260.056 449.36,283.944"/>
	<polygon fill="black" stroke-width="1" points="449.36,283.944 457.115,278.572 447.93,274.619"/>
	<polygon stroke="black" stroke-width="1" points="487.313,257.994 504.687,286.006"/>
	<polygon fill="black" stroke-width="1" points="504.687,286.006 504.719,276.572 496.221,281.843"/>
	<polygon stroke="black" stroke-width="1" points="185.037,98.146 164.963,123.854"/>
	<polygon fill="black" stroke-width="1" points="164.963,123.854 173.827,120.626 165.946,114.472"/>
	<polygon stroke="black" stroke-width="1" points="219.242,100.038 232.758,121.962"/>
	<polygon fill="black" stroke-width="1" points="232.758,121.962 232.816,112.528 224.303,117.776"/>
	<polygon stroke="black" stroke-width="1" points="248.5,177.5 248.5,202.5"/>
	<polygon fill="black" stroke-width="1" points="248.5,202.5 253.5,194.5 243.5,194.5"/>
	<polygon stroke="black" stroke-width="1" points="133.21,174.396 117.79,205.604"/>
	<polygon fill="black" stroke-width="1" points="117.79,205.604 125.816,200.647 116.851,196.217"/>
	<polygon stroke="black" stroke-width="1" points="156.779,175.684 167.221,204.316"/>
	<polygon fill="black" stroke-width="1" points="167.221,204.316 169.177,195.087 159.783,198.513"/>
	<polygon stroke="black" stroke-width="1" points="177.5,262.5 177.5,281.5"/>
	<polygon fill="black" stroke-width="1" points="177.5,281.5 182.5,273.5 172.5,273.5"/>
	<polygon stroke="black" stroke-width="1" points="104.5,262.5 104.5,281.5"/>
	<polygon fill="black" stroke-width="1" points="104.5,281.5 109.5,273.5 99.5,273.5"/>
</svg>
