<?xml version="1.0" standalone="no"?>
<!DOCTYPE svg PUBLIC "-//W3C//DTD SVG 1.1//EN" "http://www.w3.org/Graphics/SVG/1.1/DTD/svg11.dtd">

<svg width="440" height="370" version="1.1" xmlns="http://www.w3.org/2000/svg">
	<ellipse stroke="black" stroke-width="1" fill="none" cx="273.5" cy="30.5" rx="30" ry="30"/>
	<ellipse stroke="black" stroke-width="1" fill="none" cx="127.5" cy="112.5" rx="30" ry="30"/>
	<text x="124.5" y="118.5" font-family="Times New Roman" font-size="20">:</text>
	<ellipse stroke="black" stroke-width="1" fill="none" cx="273.5" cy="118.5" rx="30" ry="30"/>
	<text x="270.5" y="124.5" font-family="Times New Roman" font-size="20">;</text>
	<ellipse stroke="black" stroke-width="1" fill="none" cx="31.5" cy="218.5" rx="30" ry="30"/>
	<text x="28.5" y="224.5" font-family="Times New Roman" font-size="20">(</text>
	<ellipse stroke="black" stroke-width="1" fill="none" cx="213.5" cy="218.5" rx="30" ry="30"/>
	<text x="210.5" y="224.5" font-family="Times New Roman" font-size="20">)</text>
	<ellipse stroke="black" stroke-width="1" fill="none" cx="153.5" cy="308.5" rx="30" ry="30"/>
	<text x="150.5" y="314.5" font-family="Times New Roman" font-size="20">)</text>
	<ellipse stroke="black" stroke-width="1" fill="none" cx="153.5" cy="308.5" rx="24" ry="24"/>
	<ellipse stroke="black" stroke-width="1" fill="none" cx="153.5" cy="218.5" rx="30" ry="30"/>
	<text x="150.5" y="224.5" font-family="Times New Roman" font-size="20">-</text>
	<ellipse stroke="black" stroke-width="1" fill="none" cx="273.5" cy="218.5" rx="30" ry="30"/>
	<text x="270.5" y="224.5" font-family="Times New Roman" font-size="20">)</text>
	<ellipse stroke="black" stroke-width="1" fill="none" cx="273.5" cy="218.5" rx="24" ry="24"/>
	<ellipse stroke="black" stroke-width="1" fill="none" cx="93.5" cy="218.5" rx="30" ry="30"/>
	<text x="86.5" y="224.5" font-family="Times New Roman" font-size="20">D</text>
	<ellipse stroke="black" stroke-width="1" fill="none" cx="93.5" cy="218.5" rx="24" ry="24"/>
	<ellipse stroke="black" stroke-width="1" fill="none" cx="379.5" cy="112.5" rx="30" ry="30"/>
	<text x="374.5" y="118.5" font-family="Times New Roman" font-size="20">8</text>
	<ellipse stroke="black" stroke-width="1" fill="none" cx="379.5" cy="218.5" rx="30" ry="30"/>
	<text x="376.5" y="224.5" font-family="Times New Roman" font-size="20">-</text>
	<ellipse stroke="black" stroke-width="1" fill="none" cx="379.5" cy="308.5" rx="30" ry="30"/>
	<text x="377.5" y="314.5" font-family="Times New Roman" font-size="20">|</text>
	<ellipse stroke="black" stroke-width="1" fill="none" cx="379.5" cy="308.5" rx="24" ry="24"/>
	<polygon stroke="black" stroke-width="1" points="273.5,60.5 273.5,88.5"/>
	<polygon fill="black" stroke-width="1" points="273.5,88.5 278.5,80.5 268.5,80.5"/>
	<polygon stroke="black" stroke-width="1" points="273.5,148.5 273.5,188.5"/>
	<polygon fill="black" stroke-width="1" points="273.5,188.5 278.5,180.5 268.5,180.5"/>
	<polygon stroke="black" stroke-width="1" points="146.401,135.797 194.599,195.203"/>
	<polygon fill="black" stroke-width="1" points="194.599,195.203 193.441,185.84 185.676,192.141"/>
	<polygon stroke="black" stroke-width="1" points="134.647,141.636 146.353,189.364"/>
	<polygon fill="black" stroke-width="1" points="146.353,189.364 149.304,180.403 139.592,182.785"/>
	<polygon stroke="black" stroke-width="1" points="153.5,248.5 153.5,278.5"/>
	<polygon fill="black" stroke-width="1" points="153.5,278.5 158.5,270.5 148.5,270.5"/>
	<polygon stroke="black" stroke-width="1" points="247.343,45.191 153.657,97.809"/>
	<polygon fill="black" stroke-width="1" points="153.657,97.809 163.08,98.251 158.184,89.532"/>
	<polygon stroke="black" stroke-width="1" points="118.337,141.066 102.663,189.934"/>
	<polygon fill="black" stroke-width="1" points="102.663,189.934 109.867,183.843 100.345,180.789"/>
	<polygon stroke="black" stroke-width="1" points="107.362,134.736 51.638,196.264"/>
	<polygon fill="black" stroke-width="1" points="51.638,196.264 60.715,193.691 53.303,186.978"/>
	<polygon stroke="black" stroke-width="1" points="297.229,48.856 355.771,94.144"/>
	<polygon fill="black" stroke-width="1" points="355.771,94.144 352.503,85.294 346.384,93.204"/>
	<polygon stroke="black" stroke-width="1" points="379.5,142.5 379.5,188.5"/>
	<polygon fill="black" stroke-width="1" points="379.5,188.5 384.5,180.5 374.5,180.5"/>
	<polygon stroke="black" stroke-width="1" points="379.5,248.5 379.5,278.5"/>
	<polygon fill="black" stroke-width="1" points="379.5,278.5 384.5,270.5 374.5,270.5"/>
</svg>
