<?xml version="1.0" standalone="no"?>
<!DOCTYPE svg PUBLIC "-//W3C//DTD SVG 1.1//EN" "http://www.w3.org/Graphics/SVG/1.1/DTD/svg11.dtd">

<svg width="250" height="500" version="1.1" xmlns="http://www.w3.org/2000/svg">
	<ellipse stroke="black" stroke-width="1" fill="none" cx="151.5" cy="35.5" rx="30" ry="30"/>
	<ellipse stroke="black" stroke-width="1" fill="none" cx="78.5" cy="97.5" rx="30" ry="30"/>
	<text x="73.5" y="103.5" font-family="Times New Roman" font-size="20">h</text>
	<ellipse stroke="black" stroke-width="1" fill="none" cx="218.5" cy="97.5" rx="30" ry="30"/>
	<text x="214.5" y="103.5" font-family="Times New Roman" font-size="20">a</text>
	<ellipse stroke="black" stroke-width="1" fill="none" cx="218.5" cy="97.5" rx="24" ry="24"/>
	<ellipse stroke="black" stroke-width="1" fill="none" cx="78.5" cy="183.5" rx="30" ry="30"/>
	<text x="73.5" y="189.5" font-family="Times New Roman" font-size="20">o</text>
	<ellipse stroke="black" stroke-width="1" fill="none" cx="35.5" cy="268.5" rx="30" ry="30"/>
	<text x="27.5" y="274.5" font-family="Times New Roman" font-size="20">m</text>
	<ellipse stroke="black" stroke-width="1" fill="none" cx="35.5" cy="350.5" rx="30" ry="30"/>
	<text x="31.5" y="356.5" font-family="Times New Roman" font-size="20">e</text>
	<ellipse stroke="black" stroke-width="1" fill="none" cx="35.5" cy="350.5" rx="24" ry="24"/>
	<ellipse stroke="black" stroke-width="1" fill="none" cx="35.5" cy="431.5" rx="30" ry="30"/>
	<text x="31.5" y="437.5" font-family="Times New Roman" font-size="20">s</text>
	<ellipse stroke="black" stroke-width="1" fill="none" cx="35.5" cy="431.5" rx="24" ry="24"/>
	<ellipse stroke="black" stroke-width="1" fill="none" cx="218.5" cy="183.5" rx="30" ry="30"/>
	<text x="213.5" y="189.5" font-family="Times New Roman" font-size="20">n</text>
	<ellipse stroke="black" stroke-width="1" fill="none" cx="218.5" cy="183.5" rx="24" ry="24"/>
	<ellipse stroke="black" stroke-width="1" fill="none" cx="218.5" cy="268.5" rx="30" ry="30"/>
	<text x="213.5" y="274.5" font-family="Times New Roman" font-size="20">d</text>
	<ellipse stroke="black" stroke-width="1" fill="none" cx="218.5" cy="268.5" rx="24" ry="24"/>
    <ellipse stroke="black" stroke-width="1" fill="none" cx="121.5" cy="268.5" rx="30" ry="30"/>
	<text x="116.5" y="274.5" font-family="Times New Roman" font-size="20">p</text>
	<polygon stroke="black" stroke-width="1" points="128.634,54.92 101.366,78.08"/>
	<polygon fill="black" stroke-width="1" points="101.366,78.08 110.7,76.712 104.227,69.09"/>
	<polygon stroke="black" stroke-width="1" points="173.519,55.876 196.481,77.124"/>
	<polygon fill="black" stroke-width="1" points="196.481,77.124 194.005,68.021 187.213,75.361"/>
	<polygon stroke="black" stroke-width="1" points="218.5,127.5 218.5,153.5"/>
	<polygon fill="black" stroke-width="1" points="218.5,153.5 223.5,145.5 213.5,145.5"/>
	<polygon stroke="black" stroke-width="1" points="218.5,213.5 218.5,238.5"/>
	<polygon fill="black" stroke-width="1" points="218.5,238.5 223.5,230.5 213.5,230.5"/>
	<polygon stroke="black" stroke-width="1" points="78.5,127.5 78.5,153.5"/>
	<polygon fill="black" stroke-width="1" points="78.5,153.5 83.5,145.5 73.5,145.5"/>
	<polygon stroke="black" stroke-width="1" points="64.958,210.27 49.042,241.73"/>
	<polygon fill="black" stroke-width="1" points="49.042,241.73 57.115,236.849 48.192,232.335"/>
	<polygon stroke="black" stroke-width="1" points="35.5,298.5 35.5,320.5"/>
	<polygon fill="black" stroke-width="1" points="35.5,320.5 40.5,312.5 30.5,312.5"/>
	<polygon stroke="black" stroke-width="1" points="35.5,380.5 35.5,401.5"/>
	<polygon fill="black" stroke-width="1" points="35.5,401.5 40.5,393.5 30.5,393.5"/>
	<polygon stroke="black" stroke-width="1" points="92.042,210.27 107.958,241.73"/>
	<polygon fill="black" stroke-width="1" points="107.958,241.73 108.808,232.335 99.885,236.849"/>

</svg>