<?xml version="1.0" standalone="no"?>
<!DOCTYPE svg PUBLIC "-//W3C//DTD SVG 1.1//EN" "http://www.w3.org/Graphics/SVG/1.1/DTD/svg11.dtd">

<svg width="500" height="330" version="1.1" xmlns="http://www.w3.org/2000/svg">
	<ellipse stroke="black" stroke-width="1" fill="none" cx="226.5" cy="32.5" rx="30" ry="30"/>
	<text x="219.5" y="38.5" font-family="Times New Roman" font-size="20">A</text>
	<ellipse stroke="black" stroke-width="1" fill="none" cx="369.5" cy="111.5" rx="30" ry="30"/>
	<text x="362.5" y="117.5" font-family="Times New Roman" font-size="20">B</text>
	<ellipse stroke="black" stroke-width="1" fill="none" cx="281.5" cy="111.5" rx="30" ry="30"/>
	<text x="274.5" y="117.5" font-family="Times New Roman" font-size="20">C</text>
	<ellipse stroke="black" stroke-width="1" fill="none" cx="155.5" cy="111.5" rx="30" ry="30"/>
	<text x="148.5" y="117.5" font-family="Times New Roman" font-size="20">D</text>
	<ellipse stroke="black" stroke-width="1" fill="none" cx="32.5" cy="111.5" rx="30" ry="30"/>
	<text x="26.5" y="117.5" font-family="Times New Roman" font-size="20">E</text>
	<ellipse stroke="black" stroke-width="1" fill="none" cx="428.5" cy="199.5" rx="30" ry="30"/>
	<text x="422.5" y="205.5" font-family="Times New Roman" font-size="20">F</text>
	<ellipse stroke="black" stroke-width="1" fill="none" cx="355.5" cy="199.5" rx="30" ry="30"/>
	<text x="348.5" y="205.5" font-family="Times New Roman" font-size="20">G</text>
	<ellipse stroke="black" stroke-width="1" fill="none" cx="281.5" cy="199.5" rx="30" ry="30"/>
	<text x="274.5" y="205.5" font-family="Times New Roman" font-size="20">H</text>
	<ellipse stroke="black" stroke-width="1" fill="none" cx="155.5" cy="199.5" rx="30" ry="30"/>
	<text x="152.5" y="205.5" font-family="Times New Roman" font-size="20">I</text>
	<ellipse stroke="black" stroke-width="1" fill="none" cx="95.5" cy="199.5" rx="30" ry="30"/>
	<text x="91.5" y="205.5" font-family="Times New Roman" font-size="20">J</text>
	<ellipse stroke="black" stroke-width="1" fill="none" cx="217.5" cy="199.5" rx="30" ry="30"/>
	<text x="210.5" y="205.5" font-family="Times New Roman" font-size="20">K</text>
	<ellipse stroke="black" stroke-width="1" fill="none" cx="133.5" cy="282.5" rx="30" ry="30"/>
	<text x="127.5" y="288.5" font-family="Times New Roman" font-size="20">L</text>
	<ellipse stroke="black" stroke-width="1" fill="none" cx="63.5" cy="282.5" rx="30" ry="30"/>
	<text x="54.5" y="288.5" font-family="Times New Roman" font-size="20">M</text>
	<polygon stroke="black" stroke-width="1" points="252.759,47.007 343.241,96.993"/>
	<polygon fill="black" stroke-width="1" points="343.241,96.993 338.656,88.748 333.82,97.501"/>
	<polygon stroke="black" stroke-width="1" points="243.641,57.121 264.359,86.879"/>
	<polygon fill="black" stroke-width="1" points="264.359,86.879 263.891,77.457 255.685,83.17"/>
	<polygon stroke="black" stroke-width="1" points="206.447,54.813 175.553,89.187"/>
	<polygon fill="black" stroke-width="1" points="175.553,89.187 184.62,86.579 177.182,79.895"/>
	<polygon stroke="black" stroke-width="1" points="198.715,43.814 60.285,100.186"/>
	<polygon fill="black" stroke-width="1" points="60.285,100.186 69.58,101.799 65.808,92.538"/>
	<polygon stroke="black" stroke-width="1" points="386.206,136.418 411.794,174.582"/>
	<polygon fill="black" stroke-width="1" points="411.794,174.582 411.492,165.153 403.186,170.722"/>
	<polygon stroke="black" stroke-width="1" points="364.787,141.127 360.213,169.873"/>
	<polygon fill="black" stroke-width="1" points="360.213,169.873 366.408,162.758 356.532,161.186"/>
	<polygon stroke="black" stroke-width="1" points="281.5,141.5 281.5,169.5"/>
	<polygon fill="black" stroke-width="1" points="281.5,169.5 286.5,161.5 276.5,161.5"/>
	<polygon stroke="black" stroke-width="1" points="155.5,141.5 155.5,169.5"/>
	<polygon fill="black" stroke-width="1" points="155.5,169.5 160.5,161.5 150.5,161.5"/>
	<polygon stroke="black" stroke-width="1" points="138.6,136.287 112.4,174.713"/>
	<polygon fill="black" stroke-width="1" points="112.4,174.713 121.038,170.92 112.776,165.287"/>
	<polygon stroke="black" stroke-width="1" points="172.779,136.024 200.221,174.976"/>
	<polygon fill="black" stroke-width="1" points="200.221,174.976 199.701,165.556 191.526,171.315"/>
	<polygon stroke="black" stroke-width="1" points="107.988,226.777 121.012,255.223"/>
	<polygon fill="black" stroke-width="1" points="121.012,255.223 122.228,245.868 113.135,250.03"/>
	<polygon stroke="black" stroke-width="1" points="84.708,227.492 74.292,254.508"/>
	<polygon fill="black" stroke-width="1" points="74.292,254.508 81.835,248.843 72.505,245.245"/>
</svg>
