<?xml version="1.0" standalone="no"?>
<!DOCTYPE svg PUBLIC "-//W3C//DTD SVG 1.1//EN" "http://www.w3.org/Graphics/SVG/1.1/DTD/svg11.dtd">

<svg width="400" height="400" version="1.1" xmlns="http://www.w3.org/2000/svg">
	<ellipse stroke="black" stroke-width="1" fill="none" cx="187.5" cy="48.5" rx="30" ry="30"/>
	<text x="178.5" y="54.5" font-family="Times New Roman" font-size="20">M</text>
	<ellipse stroke="black" stroke-width="1" fill="none" cx="114.5" cy="138.5" rx="30" ry="30"/>
	<text x="107.5" y="144.5" font-family="Times New Roman" font-size="20">C</text>
	<ellipse stroke="black" stroke-width="1" fill="none" cx="279.5" cy="138.5" rx="30" ry="30"/>
	<text x="272.5" y="144.5" font-family="Times New Roman" font-size="20">Q</text>
	<ellipse stroke="black" stroke-width="1" fill="none" cx="62.5" cy="230.5" rx="30" ry="30"/>
	<text x="55.5" y="236.5" font-family="Times New Roman" font-size="20">A</text>
	<ellipse stroke="black" stroke-width="1" fill="none" cx="160.5" cy="230.5" rx="30" ry="30"/>
	<text x="154.5" y="236.5" font-family="Times New Roman" font-size="20">L</text>
	<ellipse stroke="black" stroke-width="1" fill="none" cx="242.5" cy="230.5" rx="30" ry="30"/>
	<text x="235.5" y="236.5" font-family="Times New Roman" font-size="20">O</text>
	<ellipse stroke="black" stroke-width="1" fill="none" cx="329.5" cy="230.5" rx="30" ry="30"/>
	<text x="322.5" y="236.5" font-family="Times New Roman" font-size="20">Y</text>
	<ellipse stroke="black" stroke-width="1" fill="none" cx="101.5" cy="317.5" rx="30" ry="30"/>
	<text x="94.5" y="323.5" font-family="Times New Roman" font-size="20">B</text>
	<ellipse stroke="black" stroke-width="1" fill="none" cx="213.5" cy="321.5" rx="30" ry="30"/>
	<text x="206.5" y="327.5" font-family="Times New Roman" font-size="20">N</text>
	<ellipse stroke="black" stroke-width="1" fill="none" cx="279.5" cy="321.5" rx="30" ry="30"/>
	<text x="273.5" y="327.5" font-family="Times New Roman" font-size="20">P</text>
	<ellipse stroke="black" stroke-width="1" fill="none" cx="367.5" cy="321.5" rx="30" ry="30"/>
	<text x="361.5" y="327.5" font-family="Times New Roman" font-size="20">Z</text>
	<polygon stroke="black" stroke-width="1" points="168.602,71.799 133.398,115.201"/>
	<polygon fill="black" stroke-width="1" points="133.398,115.201 142.321,112.137 134.555,105.838"/>
	<polygon stroke="black" stroke-width="1" points="208.945,69.479 258.055,117.521"/>
	<polygon fill="black" stroke-width="1" points="258.055,117.521 255.833,108.353 248.84,115.501"/>
	<polygon stroke="black" stroke-width="1" points="99.738,164.617 77.262,204.383"/>
	<polygon fill="black" stroke-width="1" points="77.262,204.383 85.551,199.879 76.845,194.958"/>
	<polygon stroke="black" stroke-width="1" points="127.916,165.333 147.084,203.667"/>
	<polygon fill="black" stroke-width="1" points="147.084,203.667 147.978,194.276 139.034,198.748"/>
	<polygon stroke="black" stroke-width="1" points="74.772,257.875 89.228,290.125"/>
	<polygon fill="black" stroke-width="1" points="89.228,290.125 90.518,280.779 81.393,284.87"/>
	<polygon stroke="black" stroke-width="1" points="268.306,166.333 253.694,202.667"/>
	<polygon fill="black" stroke-width="1" points="253.694,202.667 261.318,197.11 252.04,193.379"/>
	<polygon stroke="black" stroke-width="1" points="293.825,164.859 315.175,204.141"/>
	<polygon fill="black" stroke-width="1" points="315.175,204.141 315.748,194.725 306.961,199.5"/>
	<polygon stroke="black" stroke-width="1" points="341.06,258.183 355.94,293.817"/>
	<polygon fill="black" stroke-width="1" points="355.94,293.817 357.471,284.508 348.243,288.361"/>
	<polygon stroke="black" stroke-width="1" points="233.391,259.084 222.609,292.916"/>
	<polygon fill="black" stroke-width="1" points="222.609,292.916 229.802,286.812 220.274,283.776"/>
	<polygon stroke="black" stroke-width="1" points="253.8,258.291 268.2,293.709"/>
	<polygon fill="black" stroke-width="1" points="268.2,293.709 269.819,284.415 260.556,288.182"/>
</svg>
