<?xml version="1.0" standalone="no"?>
<!DOCTYPE svg PUBLIC "-//W3C//DTD SVG 1.1//EN" "http://www.w3.org/Graphics/SVG/1.1/DTD/svg11.dtd">

<svg width="500" height="410" version="1.1" xmlns="http://www.w3.org/2000/svg">
	<ellipse stroke="black" stroke-width="1" fill="none" cx="238.5" cy="40.5" rx="30" ry="30"/>
	<text x="228.5" y="46.5" font-family="Times New Roman" font-size="20">80</text>
	<ellipse stroke="black" stroke-width="1" fill="none" cx="129.5" cy="111.5" rx="30" ry="30"/>
	<text x="119.5" y="117.5" font-family="Times New Roman" font-size="20">40</text>
	<ellipse stroke="black" stroke-width="1" fill="none" cx="353.5" cy="111.5" rx="30" ry="30"/>
	<text x="338.5" y="117.5" font-family="Times New Roman" font-size="20">130</text>
	<ellipse stroke="black" stroke-width="1" fill="none" cx="65.5" cy="201.5" rx="30" ry="30"/>
	<text x="55.5" y="207.5" font-family="Times New Roman" font-size="20">20</text>
	<ellipse stroke="black" stroke-width="1" fill="none" cx="181.5" cy="201.5" rx="30" ry="30"/>
	<text x="171.5" y="207.5" font-family="Times New Roman" font-size="20">60</text>
	<ellipse stroke="black" stroke-width="1" fill="none" cx="321.5" cy="201.5" rx="30" ry="30"/>
	<text x="306.5" y="207.5" font-family="Times New Roman" font-size="20">120</text>
	<ellipse stroke="black" stroke-width="1" fill="none" cx="411.5" cy="201.5" rx="30" ry="30"/>
	<text x="396.5" y="207.5" font-family="Times New Roman" font-size="20">140</text>
	<ellipse stroke="black" stroke-width="1" fill="none" cx="30.5" cy="297.5" rx="30" ry="30"/>
	<text x="20.5" y="303.5" font-family="Times New Roman" font-size="20">10</text>
	<ellipse stroke="black" stroke-width="1" fill="none" cx="90.5" cy="297.5" rx="30" ry="30"/>
	<text x="80.5" y="303.5" font-family="Times New Roman" font-size="20">30</text>
	<ellipse stroke="black" stroke-width="1" fill="none" cx="212.5" cy="294.5" rx="30" ry="30"/>
	<text x="202.5" y="300.5" font-family="Times New Roman" font-size="20">70</text>
	<ellipse stroke="black" stroke-width="1" fill="none" cx="284.5" cy="294.5" rx="30" ry="30"/>
	<text x="269.5" y="300.5" font-family="Times New Roman" font-size="20">100</text>
	<ellipse stroke="black" stroke-width="1" fill="none" cx="458.5" cy="294.5" rx="30" ry="30"/>
	<text x="443.5" y="300.5" font-family="Times New Roman" font-size="20">140</text>
	<ellipse stroke="black" stroke-width="1" fill="none" cx="151.5" cy="294.5" rx="30" ry="30"/>
	<text x="141.5" y="300.5" font-family="Times New Roman" font-size="20">50</text>
	<ellipse stroke="black" stroke-width="1" fill="none" cx="340.5" cy="372.5" rx="30" ry="30"/>
	<text x="325.5" y="378.5" font-family="Times New Roman" font-size="20">110</text>
	<ellipse stroke="black" stroke-width="1" fill="none" cx="247.5" cy="372.5" rx="30" ry="30"/>
	<text x="237.5" y="378.5" font-family="Times New Roman" font-size="20">90</text>
	<polygon stroke="black" stroke-width="1" points="112.114,135.949 82.886,177.051"/>
	<polygon fill="black" stroke-width="1" points="82.886,177.051 91.597,173.429 83.447,167.634"/>
	<polygon stroke="black" stroke-width="1" points="144.508,137.476 166.492,175.524"/>
	<polygon fill="black" stroke-width="1" points="166.492,175.524 166.819,166.096 158.16,171.099"/>
	<polygon stroke="black" stroke-width="1" points="55.224,229.685 40.776,269.315"/>
	<polygon fill="black" stroke-width="1" points="40.776,269.315 48.214,263.511 38.819,260.086"/>
	<polygon stroke="black" stroke-width="1" points="73.06,230.532 82.94,268.468"/>
	<polygon fill="black" stroke-width="1" points="82.94,268.468 85.762,259.466 76.085,261.987"/>
	<polygon stroke="black" stroke-width="1" points="190.987,229.96 203.013,266.04"/>
	<polygon fill="black" stroke-width="1" points="203.013,266.04 205.227,256.869 195.74,260.031"/>
	<polygon stroke="black" stroke-width="1" points="343.45,139.766 331.55,173.234"/>
	<polygon fill="black" stroke-width="1" points="331.55,173.234 338.941,167.371 329.519,164.021"/>
	<polygon stroke="black" stroke-width="1" points="213.363,56.874 154.637,95.126"/>
	<polygon fill="black" stroke-width="1" points="154.637,95.126 164.07,94.949 158.612,86.57"/>
	<polygon stroke="black" stroke-width="1" points="264.027,56.26 327.973,95.74"/>
	<polygon fill="black" stroke-width="1" points="327.973,95.74 323.793,87.283 318.539,95.792"/>
	<polygon stroke="black" stroke-width="1" points="369.751,136.717 395.249,176.283"/>
	<polygon fill="black" stroke-width="1" points="395.249,176.283 395.118,166.85 386.712,172.267"/>
	<polygon stroke="black" stroke-width="1" points="310.41,229.375 295.59,266.625"/>
	<polygon fill="black" stroke-width="1" points="295.59,266.625 303.193,261.04 293.902,257.343"/>
	<polygon stroke="black" stroke-width="1" points="425.031,228.275 444.969,267.725"/>
	<polygon fill="black" stroke-width="1" points="444.969,267.725 445.823,258.33 436.898,262.84"/>
	<polygon stroke="black" stroke-width="1" points="172.29,230.051 160.71,265.949"/>
	<polygon fill="black" stroke-width="1" points="160.71,265.949 167.925,259.87 158.408,256.8"/>
	<polygon stroke="black" stroke-width="1" points="301.996,318.87 323.004,348.13"/>
	<polygon fill="black" stroke-width="1" points="323.004,348.13 322.4,338.716 314.277,344.548"/>
	<polygon stroke="black" stroke-width="1" points="271.642,321.605 260.358,345.395"/>
	<polygon fill="black" stroke-width="1" points="260.358,345.395 268.304,340.31 259.269,336.024"/>
</svg>
