<?xml version="1.0" encoding="UTF-8" standalone="no"?>
<svg
   xmlns:dc="http://purl.org/dc/elements/1.1/"
   xmlns:cc="http://creativecommons.org/ns#"
   xmlns:rdf="http://www.w3.org/1999/02/22-rdf-syntax-ns#"
   xmlns:svg="http://www.w3.org/2000/svg"
   xmlns="http://www.w3.org/2000/svg"
   xmlns:sodipodi="http://sodipodi.sourceforge.net/DTD/sodipodi-0.dtd"
   xmlns:inkscape="http://www.inkscape.org/namespaces/inkscape"
   width="600"
   height="500"
   version="1.1"
   id="svg1091"
   sodipodi:docname="315_3.1_royalDesc.svg"
   inkscape:version="1.0 (4035a4f, 2020-05-01)">
  <metadata
     id="metadata1097">
    <rdf:RDF>
      <cc:Work
         rdf:about="">
        <dc:format>image/svg+xml</dc:format>
        <dc:type
           rdf:resource="http://purl.org/dc/dcmitype/StillImage" />
      </cc:Work>
    </rdf:RDF>
  </metadata>
  <defs
     id="defs1095" />
  <sodipodi:namedview
     inkscape:document-rotation="0"
     pagecolor="#ffffff"
     bordercolor="#666666"
     borderopacity="1"
     objecttolerance="10"
     gridtolerance="10"
     guidetolerance="10"
     inkscape:pageopacity="0"
     inkscape:pageshadow="2"
     inkscape:window-width="1565"
     inkscape:window-height="1005"
     id="namedview1093"
     showgrid="false"
     inkscape:zoom="1.7824197"
     inkscape:cx="314.13103"
     inkscape:cy="260.8983"
     inkscape:window-x="45"
     inkscape:window-y="23"
     inkscape:window-maximized="0"
     inkscape:current-layer="svg1091" />
  <ellipse
     stroke="#000000"
     stroke-width="1.21571"
     fill="none"
     cx="394.10675"
     cy="35.5"
     rx="44.498886"
     ry="29.892141"
     id="ellipse975" />
  <text
     x="351.5"
     y="41.5"
     font-family="'Times New Roman'"
     font-size="20px"
     id="text977">George VI</text>
  <ellipse
     stroke="#000000"
     stroke-width="1.31006"
     fill="none"
     cx="297.18539"
     cy="135.5"
     rx="51.755081"
     ry="29.844969"
     id="ellipse979" />
  <text
     x="248.5"
     y="141.5"
     font-family="'Times New Roman'"
     font-size="20px"
     id="text981">Elizabeth II</text>
  <ellipse
     stroke="#000000"
     stroke-width="1.1211"
     fill="none"
     cx="499.62857"
     cy="139.5"
     rx="37.782372"
     ry="29.939449"
     id="ellipse983" />
  <text
     x="462.5"
     y="145.5"
     font-family="Times New Roman"
     font-size="20"
     id="text985">Margaret</text>
  <ellipse
     stroke="black"
     stroke-width="1"
     fill="none"
     cx="461.5"
     cy="255.5"
     rx="30"
     ry="30"
     id="ellipse987" />
  <text
     x="437.5"
     y="261.5"
     font-family="Times New Roman"
     font-size="20"
     id="text989">David</text>
  <ellipse
     stroke="black"
     stroke-width="1"
     fill="none"
     cx="548.5"
     cy="255.5"
     rx="30"
     ry="30"
     id="ellipse991" />
  <text
     x="525.5"
     y="261.5"
     font-family="Times New Roman"
     font-size="20"
     id="text993">Sarah</text>
  <ellipse
     stroke="black"
     stroke-width="1"
     fill="none"
     cx="195.5"
     cy="255.5"
     rx="30"
     ry="30"
     id="ellipse995" />
  <text
     x="164.5"
     y="261.5"
     font-family="Times New Roman"
     font-size="20"
     id="text997">Charles</text>
  <ellipse
     stroke="black"
     stroke-width="1"
     fill="none"
     cx="395.5"
     cy="255.5"
     rx="30"
     ry="30"
     id="ellipse999" />
  <text
     x="373.5"
     y="261.5"
     font-family="Times New Roman"
     font-size="20"
     id="text1001">Anne</text>
  <ellipse
     stroke="black"
     stroke-width="1"
     fill="none"
     cx="354.5"
     cy="345.5"
     rx="30"
     ry="30"
     id="ellipse1003" />
  <text
     x="333.5"
     y="351.5"
     font-family="Times New Roman"
     font-size="20"
     id="text1005">Peter</text>
  <ellipse
     stroke="black"
     stroke-width="1"
     fill="none"
     cx="451.5"
     cy="345.5"
     rx="30"
     ry="30"
     id="ellipse1007" />
  <text
     x="433.5"
     y="351.5"
     font-family="Times New Roman"
     font-size="20"
     id="text1009">Zara</text>
  <ellipse
     style="stroke-width:1;stroke-miterlimit:4;stroke-dasharray:4,2,1,2;stroke-dashoffset:0"
     stroke="#000000"
     stroke-width="1.08227"
     fill="none"
     cx="115.72861"
     cy="345.5"
     rx="35.187481"
     ry="29.958864"
     id="ellipse1011" />
  <text
     x="82.5"
     y="351.5"
     font-family="Times New Roman"
     font-size="20"
     id="text1013">William</text>
  <ellipse
     style="stroke-width:1;stroke-miterlimit:4;stroke-dasharray:4,2,1,2;stroke-dashoffset:0"
     stroke="black"
     stroke-width="1"
     fill="none"
     cx="264.5"
     cy="345.5"
     rx="30"
     ry="30"
     id="ellipse1015" />
  <text
     x="241.5"
     y="351.5"
     font-family="Times New Roman"
     font-size="20"
     id="text1017">Harry</text>
  <ellipse
     style="stroke-width:1;stroke-miterlimit:4;stroke-dasharray:4,2,1,2;stroke-dashoffset:0"
     stroke="black"
     stroke-width="1"
     fill="none"
     cx="30.5"
     cy="447.5"
     rx="30"
     ry="30"
     id="ellipse1019" />
  <text
     x="1.5"
     y="453.5"
     font-family="Times New Roman"
     font-size="20"
     id="text1021">George</text>
  <ellipse
     style="stroke-width:1;stroke-miterlimit:4;stroke-dasharray:4,2,1,2;stroke-dashoffset:0"
     stroke="#000000"
     stroke-width="1.11718"
     fill="none"
     cx="115.34155"
     cy="447.5"
     rx="37.515388"
     ry="29.941416"
     id="ellipse1023" />
  <text
     x="77.5"
     y="453.5"
     font-family="Times New Roman"
     font-size="20"
     id="text1025">Charlotte</text>
  <ellipse
     style="stroke-width:1;stroke-miterlimit:4;stroke-dasharray:4,2,1,2;stroke-dashoffset:0"
     stroke="black"
     stroke-width="1"
     fill="none"
     cx="195.5"
     cy="447.5"
     rx="30"
     ry="30"
     id="ellipse1027" />
  <text
     x="172.5"
     y="453.5"
     font-family="Times New Roman"
     font-size="20"
     id="text1029">Louis</text>
  <ellipse
     style="stroke-width:1;stroke-miterlimit:4;stroke-dasharray:4,2,1,2;stroke-dashoffset:0"
     stroke="black"
     stroke-width="1"
     fill="none"
     cx="264.5"
     cy="447.5"
     rx="30"
     ry="30"
     id="ellipse1031" />
  <text
     x="237.5"
     y="453.5"
     font-family="Times New Roman"
     font-size="20"
     id="text1033">Archie</text>
  <polygon
     stroke="#000000"
     stroke-width="1"
     points="316.713,118.287 374.287,60.713 "
     id="polygon1035"
     transform="matrix(0.76031518,0,0,0.83599482,89.782592,9.8855663)" />
  <polygon
     fill="#000000"
     stroke-width="1"
     points="318.835,109.094 316.713,118.287 325.906,116.165 "
     id="polygon1037"
     transform="translate(10,-6)" />
  <polygon
     stroke="#000000"
     stroke-width="1"
     points="476.976,118.603 417.024,60.397 "
     id="polygon1039"
     transform="matrix(0.96663998,0,0,0.96563928,13.91193,2.0752843)" />
  <polygon
     fill="#000000"
     stroke-width="1"
     points="467.753,116.617 476.976,118.603 474.719,109.443 "
     id="polygon1041"
     transform="translate(-2,-2)" />
  <polygon
     stroke="black"
     stroke-width="1"
     points="275.912,162.222 215.088,232.778"
     id="polygon1043" />
  <polygon
     fill="black"
     stroke-width="1"
     points="215.088,232.778 224.099,229.983 216.525,223.454"
     id="polygon1045" />
  <polygon
     stroke="black"
     stroke-width="1"
     points="315.088,162.222 375.912,232.778"
     id="polygon1047" />
  <polygon
     fill="black"
     stroke-width="1"
     points="375.912,232.778 374.475,223.454 366.901,229.983"
     id="polygon1049" />
  <polygon
     stroke="black"
     stroke-width="1"
     points="489.384,168.081 470.616,226.919"
     id="polygon1051" />
  <polygon
     fill="black"
     stroke-width="1"
     points="470.616,226.919 477.811,220.816 468.284,217.778"
     id="polygon1053" />
  <polygon
     stroke="black"
     stroke-width="1"
     points="510.375,167.05 536.625,227.95"
     id="polygon1055" />
  <polygon
     fill="black"
     stroke-width="1"
     points="536.625,227.95 538.05,218.625 528.867,222.583"
     id="polygon1057" />
  <polygon
     stroke="black"
     stroke-width="1"
     points="383.063,282.801 366.937,318.199"
     id="polygon1059" />
  <polygon
     fill="black"
     stroke-width="1"
     points="366.937,318.199 374.804,312.992 365.703,308.846"
     id="polygon1061" />
  <polygon
     stroke="black"
     stroke-width="1"
     points="411.349,280.972 435.651,320.028"
     id="polygon1063" />
  <polygon
     fill="black"
     stroke-width="1"
     points="435.651,320.028 435.67,310.594 427.179,315.877"
     id="polygon1065" />
  <polygon
     stroke="#000000"
     stroke-width="1"
     points="134.569,323.201 175.431,277.799 "
     id="polygon1067"
     transform="matrix(1.0489452,0,0,0.91189817,-4.5865044,26.474601)" />
  <polygon
     fill="#000000"
     stroke-width="1"
     points="136.204,313.91 134.569,323.201 143.637,320.6 "
     id="polygon1069"
     transform="translate(2,-2)" />
  <polygon
     stroke="black"
     stroke-width="1"
     points="213.753,279.308 246.247,321.692"
     id="polygon1071" />
  <polygon
     fill="black"
     stroke-width="1"
     points="246.247,321.692 245.348,312.301 237.412,318.385"
     id="polygon1073" />
  <polygon
     stroke="black"
     stroke-width="1"
     points="95.429,368.658 49.571,424.342"
     id="polygon1075" />
  <polygon
     fill="black"
     stroke-width="1"
     points="49.571,424.342 58.517,421.345 50.797,414.988"
     id="polygon1077" />
  <polygon
     stroke="black"
     stroke-width="1"
     points="114.5,375.5 114.5,417.5"
     id="polygon1079" />
  <polygon
     fill="black"
     stroke-width="1"
     points="114.5,417.5 119.5,409.5 109.5,409.5"
     id="polygon1081" />
  <polygon
     stroke="#000000"
     stroke-width="1"
     points="176.844,424.007 133.156,368.993 "
     id="polygon1083"
     transform="matrix(0.94087405,0,0,0.98461424,10.471676,6.5361714)" />
  <polygon
     fill="black"
     stroke-width="1"
     points="176.844,424.007 175.784,414.632 167.953,420.851"
     id="polygon1085" />
  <polygon
     stroke="black"
     stroke-width="1"
     points="264.5,375.5 264.5,417.5"
     id="polygon1087" />
  <polygon
     fill="black"
     stroke-width="1"
     points="264.5,417.5 269.5,409.5 259.5,409.5"
     id="polygon1089" />
</svg>
